<svg class="rich-terminal" viewBox="0 0 1482 1026.0" xmlns="http://www.w3.org/2000/svg">
    <!-- Generated with Rich https://www.textualize.io -->
    <style>

    @font-face {
        font-family: "Fira Code";
        src: local("FiraCode-Regular"),
                url("https://cdnjs.cloudflare.com/ajax/libs/firacode/6.2.0/woff2/FiraCode-Regular.woff2") format("woff2"),
                url("https://cdnjs.cloudflare.com/ajax/libs/firacode/6.2.0/woff/FiraCode-Regular.woff") format("woff");
        font-style: normal;
        font-weight: 400;
    }
    @font-face {
        font-family: "Fira Code";
        src: local("FiraCode-Bold"),
                url("https://cdnjs.cloudflare.com/ajax/libs/firacode/6.2.0/woff2/FiraCode-Bold.woff2") format("woff2"),
                url("https://cdnjs.cloudflare.com/ajax/libs/firacode/6.2.0/woff/FiraCode-Bold.woff") format("woff");
        font-style: bold;
        font-weight: 700;
    }

    .terminal-3733532963-matrix {
        font-family: Fira Code, monospace;
        font-size: 20px;
        line-height: 24.4px;
        font-variant-east-asian: full-width;
    }

    .terminal-3733532963-title {
        font-size: 18px;
        font-weight: bold;
        font-family: arial;
    }

    .terminal-3733532963-r1 { fill: #e4e4e4;font-weight: bold }
.terminal-3733532963-r2 { fill: #e0e0e0 }
.terminal-3733532963-r3 { fill: #9d9d9d }
.terminal-3733532963-r4 { fill: #c5c8c6 }
.terminal-3733532963-r5 { fill: #a4a4a4 }
.terminal-3733532963-r6 { fill: #c3c3c3 }
.terminal-3733532963-r7 { fill: #b9b9b9;font-weight: bold }
.terminal-3733532963-r8 { fill: #c4c4c4;font-weight: bold }
.terminal-3733532963-r9 { fill: #979797 }
.terminal-3733532963-r10 { fill: #adadad }
.terminal-3733532963-r11 { fill: #707070 }
.terminal-3733532963-r12 { fill: #e0e0e0;font-weight: bold }
.terminal-3733532963-r13 { fill: #0c0c0c }
.terminal-3733532963-r14 { fill: #272727 }
.terminal-3733532963-r15 { fill: #a2a2a2;font-weight: bold }
.terminal-3733532963-r16 { fill: #c4c4c4 }
.terminal-3733532963-r17 { fill: #999999 }
.terminal-3733532963-r18 { fill: #727272 }
    </style>

    <defs>
    <clipPath id="terminal-3733532963-clip-terminal">
      <rect x="0" y="0" width="1463.0" height="975.0" />
    </clipPath>
    <clipPath id="terminal-3733532963-line-0">
    <rect x="0" y="1.5" width="1464" height="24.65"/>
            </clipPath>
<clipPath id="terminal-3733532963-line-1">
    <rect x="0" y="25.9" width="1464" height="24.65"/>
            </clipPath>
<clipPath id="terminal-3733532963-line-2">
    <rect x="0" y="50.3" width="1464" height="24.65"/>
            </clipPath>
<clipPath id="terminal-3733532963-line-3">
    <rect x="0" y="74.7" width="1464" height="24.65"/>
            </clipPath>
<clipPath id="terminal-3733532963-line-4">
    <rect x="0" y="99.1" width="1464" height="24.65"/>
            </clipPath>
<clipPath id="terminal-3733532963-line-5">
    <rect x="0" y="123.5" width="1464" height="24.65"/>
            </clipPath>
<clipPath id="terminal-3733532963-line-6">
    <rect x="0" y="147.9" width="1464" height="24.65"/>
            </clipPath>
<clipPath id="terminal-3733532963-line-7">
    <rect x="0" y="172.3" width="1464" height="24.65"/>
            </clipPath>
<clipPath id="terminal-3733532963-line-8">
    <rect x="0" y="196.7" width="1464" height="24.65"/>
            </clipPath>
<clipPath id="terminal-3733532963-line-9">
    <rect x="0" y="221.1" width="1464" height="24.65"/>
            </clipPath>
<clipPath id="terminal-3733532963-line-10">
    <rect x="0" y="245.5" width="1464" height="24.65"/>
            </clipPath>
<clipPath id="terminal-3733532963-line-11">
    <rect x="0" y="269.9" width="1464" height="24.65"/>
            </clipPath>
<clipPath id="terminal-3733532963-line-12">
    <rect x="0" y="294.3" width="1464" height="24.65"/>
            </clipPath>
<clipPath id="terminal-3733532963-line-13">
    <rect x="0" y="318.7" width="1464" height="24.65"/>
            </clipPath>
<clipPath id="terminal-3733532963-line-14">
    <rect x="0" y="343.1" width="1464" height="24.65"/>
            </clipPath>
<clipPath id="terminal-3733532963-line-15">
    <rect x="0" y="367.5" width="1464" height="24.65"/>
            </clipPath>
<clipPath id="terminal-3733532963-line-16">
    <rect x="0" y="391.9" width="1464" height="24.65"/>
            </clipPath>
<clipPath id="terminal-3733532963-line-17">
    <rect x="0" y="416.3" width="1464" height="24.65"/>
            </clipPath>
<clipPath id="terminal-3733532963-line-18">
    <rect x="0" y="440.7" width="1464" height="24.65"/>
            </clipPath>
<clipPath id="terminal-3733532963-line-19">
    <rect x="0" y="465.1" width="1464" height="24.65"/>
            </clipPath>
<clipPath id="terminal-3733532963-line-20">
    <rect x="0" y="489.5" width="1464" height="24.65"/>
            </clipPath>
<clipPath id="terminal-3733532963-line-21">
    <rect x="0" y="513.9" width="1464" height="24.65"/>
            </clipPath>
<clipPath id="terminal-3733532963-line-22">
    <rect x="0" y="538.3" width="1464" height="24.65"/>
            </clipPath>
<clipPath id="terminal-3733532963-line-23">
    <rect x="0" y="562.7" width="1464" height="24.65"/>
            </clipPath>
<clipPath id="terminal-3733532963-line-24">
    <rect x="0" y="587.1" width="1464" height="24.65"/>
            </clipPath>
<clipPath id="terminal-3733532963-line-25">
    <rect x="0" y="611.5" width="1464" height="24.65"/>
            </clipPath>
<clipPath id="terminal-3733532963-line-26">
    <rect x="0" y="635.9" width="1464" height="24.65"/>
            </clipPath>
<clipPath id="terminal-3733532963-line-27">
    <rect x="0" y="660.3" width="1464" height="24.65"/>
            </clipPath>
<clipPath id="terminal-3733532963-line-28">
    <rect x="0" y="684.7" width="1464" height="24.65"/>
            </clipPath>
<clipPath id="terminal-3733532963-line-29">
    <rect x="0" y="709.1" width="1464" height="24.65"/>
            </clipPath>
<clipPath id="terminal-3733532963-line-30">
    <rect x="0" y="733.5" width="1464" height="24.65"/>
            </clipPath>
<clipPath id="terminal-3733532963-line-31">
    <rect x="0" y="757.9" width="1464" height="24.65"/>
            </clipPath>
<clipPath id="terminal-3733532963-line-32">
    <rect x="0" y="782.3" width="1464" height="24.65"/>
            </clipPath>
<clipPath id="terminal-3733532963-line-33">
    <rect x="0" y="806.7" width="1464" height="24.65"/>
            </clipPath>
<clipPath id="terminal-3733532963-line-34">
    <rect x="0" y="831.1" width="1464" height="24.65"/>
            </clipPath>
<clipPath id="terminal-3733532963-line-35">
    <rect x="0" y="855.5" width="1464" height="24.65"/>
            </clipPath>
<clipPath id="terminal-3733532963-line-36">
    <rect x="0" y="879.9" width="1464" height="24.65"/>
            </clipPath>
<clipPath id="terminal-3733532963-line-37">
    <rect x="0" y="904.3" width="1464" height="24.65"/>
            </clipPath>
<clipPath id="terminal-3733532963-line-38">
    <rect x="0" y="928.7" width="1464" height="24.65"/>
            </clipPath>
    </defs>

    <rect fill="#292929" stroke="rgba(255,255,255,0.35)" stroke-width="1" x="1" y="1" width="1480" height="1024" rx="8"/><text class="terminal-3733532963-title" fill="#c5c8c6" text-anchor="middle" x="740" y="27">CodingApp</text>
            <g transform="translate(26,22)">
            <circle cx="0" cy="0" r="7" fill="#ff5f57"/>
            <circle cx="22" cy="0" r="7" fill="#febc2e"/>
            <circle cx="44" cy="0" r="7" fill="#28c840"/>
            </g>
        
    <g transform="translate(9, 41)" clip-path="url(#terminal-3733532963-clip-terminal)">
    <rect fill="#1b1b1b" x="0" y="1.5" width="36.6" height="24.65" shape-rendering="crispEdges"/><rect fill="#1b1b1b" x="36.6" y="1.5" width="12.2" height="24.65" shape-rendering="crispEdges"/><rect fill="#1b1b1b" x="48.8" y="1.5" width="146.4" height="24.65" shape-rendering="crispEdges"/><rect fill="#1b1b1b" x="195.2" y="1.5" width="1244.4" height="24.65" shape-rendering="crispEdges"/><rect fill="#000000" x="1439.6" y="1.5" width="24.4" height="24.65" shape-rendering="crispEdges"/><rect fill="#0c0c0c" x="0" y="25.9" width="12.2" height="24.65" shape-rendering="crispEdges"/><rect fill="#0c0c0c" x="12.2" y="25.9" width="48.8" height="24.65" shape-rendering="crispEdges"/><rect fill="#0c0c0c" x="61" y="25.9" width="1366.4" height="24.65" shape-rendering="crispEdges"/><rect fill="#000000" x="1427.4" y="25.9" width="24.4" height="24.65" shape-rendering="crispEdges"/><rect fill="#0c0c0c" x="1451.8" y="25.9" width="12.2" height="24.65" shape-rendering="crispEdges"/><rect fill="#0c0c0c" x="0" y="50.3" width="12.2" height="24.65" shape-rendering="crispEdges"/><rect fill="#0c0c0c" x="12.2" y="50.3" width="451.4" height="24.65" shape-rendering="crispEdges"/><rect fill="#0c0c0c" x="463.6" y="50.3" width="963.8" height="24.65" shape-rendering="crispEdges"/><rect fill="#000000" x="1427.4" y="50.3" width="24.4" height="24.65" shape-rendering="crispEdges"/><rect fill="#0c0c0c" x="1451.8" y="50.3" width="12.2" height="24.65" shape-rendering="crispEdges"/><rect fill="#0c0c0c" x="0" y="74.7" width="12.2" height="24.65" shape-rendering="crispEdges"/><rect fill="#0c0c0c" x="12.2" y="74.7" width="85.4" height="24.65" shape-rendering="crispEdges"/><rect fill="#0c0c0c" x="97.6" y="74.7" width="48.8" height="24.65" shape-rendering="crispEdges"/><rect fill="#0c0c0c" x="146.4" y="74.7" width="12.2" height="24.65" shape-rendering="crispEdges"/><rect fill="#0c0c0c" x="158.6" y="74.7" width="134.2" height="24.65" shape-rendering="crispEdges"/><rect fill="#0c0c0c" x="292.8" y="74.7" width="24.4" height="24.65" shape-rendering="crispEdges"/><rect fill="#0c0c0c" x="317.2" y="74.7" width="73.2" height="24.65" shape-rendering="crispEdges"/><rect fill="#0c0c0c" x="390.4" y="74.7" width="12.2" height="24.65" shape-rendering="crispEdges"/><rect fill="#0c0c0c" x="402.6" y="74.7" width="12.2" height="24.65" shape-rendering="crispEdges"/><rect fill="#0c0c0c" x="414.8" y="74.7" width="24.4" height="24.65" shape-rendering="crispEdges"/><rect fill="#0c0c0c" x="439.2" y="74.7" width="61" height="24.65" shape-rendering="crispEdges"/><rect fill="#0c0c0c" x="500.2" y="74.7" width="12.2" height="24.65" shape-rendering="crispEdges"/><rect fill="#0c0c0c" x="512.4" y="74.7" width="12.2" height="24.65" shape-rendering="crispEdges"/><rect fill="#0c0c0c" x="524.6" y="74.7" width="902.8" height="24.65" shape-rendering="crispEdges"/><rect fill="#000000" x="1427.4" y="74.7" width="24.4" height="24.65" shape-rendering="crispEdges"/><rect fill="#0c0c0c" x="1451.8" y="74.7" width="12.2" height="24.65" shape-rendering="crispEdges"/><rect fill="#0c0c0c" x="0" y="99.1" width="12.2" height="24.65" shape-rendering="crispEdges"/><rect fill="#0c0c0c" x="12.2" y="99.1" width="24.4" height="24.65" shape-rendering="crispEdges"/><rect fill="#0c0c0c" x="36.6" y="99.1" width="24.4" height="24.65" shape-rendering="crispEdges"/><rect fill="#0c0c0c" x="61" y="99.1" width="1366.4" height="24.65" shape-rendering="crispEdges"/><rect fill="#000000" x="1427.4" y="99.1" width="24.4" height="24.65" shape-rendering="crispEdges"/><rect fill="#0c0c0c" x="1451.8" y="99.1" width="12.2" height="24.65" shape-rendering="crispEdges"/><rect fill="#0c0c0c" x="0" y="123.5" width="12.2" height="24.65" shape-rendering="crispEdges"/><rect fill="#0c0c0c" x="12.2" y="123.5" width="280.6" height="24.65" shape-rendering="crispEdges"/><rect fill="#0c0c0c" x="292.8" y="123.5" width="1134.6" height="24.65" shape-rendering="crispEdges"/><rect fill="#000000" x="1427.4" y="123.5" width="24.4" height="24.65" shape-rendering="crispEdges"/><rect fill="#0c0c0c" x="1451.8" y="123.5" width="12.2" height="24.65" shape-rendering="crispEdges"/><rect fill="#0c0c0c" x="0" y="147.9" width="12.2" height="24.65" shape-rendering="crispEdges"/><rect fill="#0c0c0c" x="12.2" y="147.9" width="73.2" height="24.65" shape-rendering="crispEdges"/><rect fill="#0c0c0c" x="85.4" y="147.9" width="12.2" height="24.65" shape-rendering="crispEdges"/><rect fill="#0c0c0c" x="97.6" y="147.9" width="48.8" height="24.65" shape-rendering="crispEdges"/><rect fill="#0c0c0c" x="146.4" y="147.9" width="12.2" height="24.65" shape-rendering="crispEdges"/><rect fill="#0c0c0c" x="158.6" y="147.9" width="292.8" height="24.65" shape-rendering="crispEdges"/><rect fill="#0c0c0c" x="451.4" y="147.9" width="36.6" height="24.65" shape-rendering="crispEdges"/><rect fill="#0c0c0c" x="488" y="147.9" width="939.4" height="24.65" shape-rendering="crispEdges"/><rect fill="#000000" x="1427.4" y="147.9" width="24.4" height="24.65" shape-rendering="crispEdges"/><rect fill="#0c0c0c" x="1451.8" y="147.9" width="12.2" height="24.65" shape-rendering="crispEdges"/><rect fill="#0c0c0c" x="0" y="172.3" width="12.2" height="24.65" shape-rendering="crispEdges"/><rect fill="#0c0c0c" x="12.2" y="172.3" width="24.4" height="24.65" shape-rendering="crispEdges"/><rect fill="#0c0c0c" x="36.6" y="172.3" width="1390.8" height="24.65" shape-rendering="crispEdges"/><rect fill="#000000" x="1427.4" y="172.3" width="24.4" height="24.65" shape-rendering="crispEdges"/><rect fill="#0c0c0c" x="1451.8" y="172.3" width="12.2" height="24.65" shape-rendering="crispEdges"/><rect fill="#0c0c0c" x="0" y="196.7" width="12.2" height="24.65" shape-rendering="crispEdges"/><rect fill="#0c0c0c" x="12.2" y="196.7" width="292.8" height="24.65" shape-rendering="crispEdges"/><rect fill="#0c0c0c" x="305" y="196.7" width="1122.4" height="24.65" shape-rendering="crispEdges"/><rect fill="#000000" x="1427.4" y="196.7" width="24.4" height="24.65" shape-rendering="crispEdges"/><rect fill="#0c0c0c" x="1451.8" y="196.7" width="12.2" height="24.65" shape-rendering="crispEdges"/><rect fill="#0c0c0c" x="0" y="221.1" width="12.2" height="24.65" shape-rendering="crispEdges"/><rect fill="#0c0c0c" x="12.2" y="221.1" width="158.6" height="24.65" shape-rendering="crispEdges"/><rect fill="#0c0c0c" x="170.8" y="221.1" width="1256.6" height="24.65" shape-rendering="crispEdges"/><rect fill="#000000" x="1427.4" y="221.1" width="24.4" height="24.65" shape-rendering="crispEdges"/><rect fill="#0c0c0c" x="1451.8" y="221.1" width="12.2" height="24.65" shape-rendering="crispEdges"/><rect fill="#0c0c0c" x="0" y="245.5" width="12.2" height="24.65" shape-rendering="crispEdges"/><rect fill="#0c0c0c" x="12.2" y="245.5" width="24.4" height="24.65" shape-rendering="crispEdges"/><rect fill="#0c0c0c" x="36.6" y="245.5" width="1390.8" height="24.65" shape-rendering="crispEdges"/><rect fill="#000000" x="1427.4" y="245.5" width="24.4" height="24.65" shape-rendering="crispEdges"/><rect fill="#0c0c0c" x="1451.8" y="245.5" width="12.2" height="24.65" shape-rendering="crispEdges"/><rect fill="#0c0c0c" x="0" y="269.9" width="12.2" height="24.65" shape-rendering="crispEdges"/><rect fill="#0c0c0c" x="12.2" y="269.9" width="207.4" height="24.65" shape-rendering="crispEdges"/><rect fill="#0c0c0c" x="219.6" y="269.9" width="36.6" height="24.65" shape-rendering="crispEdges"/><rect fill="#0c0c0c" x="256.2" y="269.9" width="1171.2" height="24.65" shape-rendering="crispEdges"/><rect fill="#000000" x="1427.4" y="269.9" width="24.4" height="24.65" shape-rendering="crispEdges"/><rect fill="#0c0c0c" x="1451.8" y="269.9" width="12.2" height="24.65" shape-rendering="crispEdges"/><rect fill="#0c0c0c" x="0" y="294.3" width="12.2" height="24.65" shape-rendering="crispEdges"/><rect fill="#0c0c0c" x="12.2" y="294.3" width="1415.2" height="24.65" shape-rendering="crispEdges"/><rect fill="#000000" x="1427.4" y="294.3" width="24.4" height="24.65" shape-rendering="crispEdges"/><rect fill="#0c0c0c" x="1451.8" y="294.3" width="12.2" height="24.65" shape-rendering="crispEdges"/><rect fill="#0c0c0c" x="0" y="318.7" width="12.2" height="24.65" shape-rendering="crispEdges"/><rect fill="#0c0c0c" x="12.2" y="318.7" width="1415.2" height="24.65" shape-rendering="crispEdges"/><rect fill="#000000" x="1427.4" y="318.7" width="24.4" height="24.65" shape-rendering="crispEdges"/><rect fill="#0c0c0c" x="1451.8" y="318.7" width="12.2" height="24.65" shape-rendering="crispEdges"/><rect fill="#0c0c0c" x="0" y="343.1" width="12.2" height="24.65" shape-rendering="crispEdges"/><rect fill="#0c0c0c" x="12.2" y="343.1" width="1415.2" height="24.65" shape-rendering="crispEdges"/><rect fill="#000000" x="1427.4" y="343.1" width="24.4" height="24.65" shape-rendering="crispEdges"/><rect fill="#0c0c0c" x="1451.8" y="343.1" width="12.2" height="24.65" shape-rendering="crispEdges"/><rect fill="#0c0c0c" x="0" y="367.5" width="12.2" height="24.65" shape-rendering="crispEdges"/><rect fill="#0c0c0c" x="12.2" y="367.5" width="1415.2" height="24.65" shape-rendering="crispEdges"/><rect fill="#000000" x="1427.4" y="367.5" width="24.4" height="24.65" shape-rendering="crispEdges"/><rect fill="#0c0c0c" x="1451.8" y="367.5" width="12.2" height="24.65" shape-rendering="crispEdges"/><rect fill="#0c0c0c" x="0" y="391.9" width="12.2" height="24.65" shape-rendering="crispEdges"/><rect fill="#0c0c0c" x="12.2" y="391.9" width="1415.2" height="24.65" shape-rendering="crispEdges"/><rect fill="#000000" x="1427.4" y="391.9" width="24.4" height="24.65" shape-rendering="crispEdges"/><rect fill="#0c0c0c" x="1451.8" y="391.9" width="12.2" height="24.65" shape-rendering="crispEdges"/><rect fill="#0c0c0c" x="0" y="416.3" width="12.2" height="24.65" shape-rendering="crispEdges"/><rect fill="#0c0c0c" x="12.2" y="416.3" width="1415.2" height="24.65" shape-rendering="crispEdges"/><rect fill="#000000" x="1427.4" y="416.3" width="24.4" height="24.65" shape-rendering="crispEdges"/><rect fill="#0c0c0c" x="1451.8" y="416.3" width="12.2" height="24.65" shape-rendering="crispEdges"/><rect fill="#0c0c0c" x="0" y="440.7" width="12.2" height="24.65" shape-rendering="crispEdges"/><rect fill="#0c0c0c" x="12.2" y="440.7" width="1415.2" height="24.65" shape-rendering="crispEdges"/><rect fill="#000000" x="1427.4" y="440.7" width="24.4" height="24.65" shape-rendering="crispEdges"/><rect fill="#0c0c0c" x="1451.8" y="440.7" width="12.2" height="24.65" shape-rendering="crispEdges"/><rect fill="#0c0c0c" x="0" y="465.1" width="12.2" height="24.65" shape-rendering="crispEdges"/><rect fill="#0c0c0c" x="12.2" y="465.1" width="1415.2" height="24.65" shape-rendering="crispEdges"/><rect fill="#000000" x="1427.4" y="465.1" width="24.4" height="24.65" shape-rendering="crispEdges"/><rect fill="#0c0c0c" x="1451.8" y="465.1" width="12.2" height="24.65" shape-rendering="crispEdges"/><rect fill="#0c0c0c" x="0" y="489.5" width="12.2" height="24.65" shape-rendering="crispEdges"/><rect fill="#0c0c0c" x="12.2" y="489.5" width="1415.2" height="24.65" shape-rendering="crispEdges"/><rect fill="#000000" x="1427.4" y="489.5" width="24.4" height="24.65" shape-rendering="crispEdges"/><rect fill="#0c0c0c" x="1451.8" y="489.5" width="12.2" height="24.65" shape-rendering="crispEdges"/><rect fill="#0c0c0c" x="0" y="513.9" width="12.2" height="24.65" shape-rendering="crispEdges"/><rect fill="#0c0c0c" x="12.2" y="513.9" width="1415.2" height="24.65" shape-rendering="crispEdges"/><rect fill="#000000" x="1427.4" y="513.9" width="24.4" height="24.65" shape-rendering="crispEdges"/><rect fill="#0c0c0c" x="1451.8" y="513.9" width="12.2" height="24.65" shape-rendering="crispEdges"/><rect fill="#0c0c0c" x="0" y="538.3" width="12.2" height="24.65" shape-rendering="crispEdges"/><rect fill="#0c0c0c" x="12.2" y="538.3" width="1415.2" height="24.65" shape-rendering="crispEdges"/><rect fill="#000000" x="1427.4" y="538.3" width="24.4" height="24.65" shape-rendering="crispEdges"/><rect fill="#0c0c0c" x="1451.8" y="538.3" width="12.2" height="24.65" shape-rendering="crispEdges"/><rect fill="#0c0c0c" x="0" y="562.7" width="12.2" height="24.65" shape-rendering="crispEdges"/><rect fill="#0c0c0c" x="12.2" y="562.7" width="1415.2" height="24.65" shape-rendering="crispEdges"/><rect fill="#000000" x="1427.4" y="562.7" width="24.4" height="24.65" shape-rendering="crispEdges"/><rect fill="#0c0c0c" x="1451.8" y="562.7" width="12.2" height="24.65" shape-rendering="crispEdges"/><rect fill="#0c0c0c" x="0" y="587.1" width="12.2" height="24.65" shape-rendering="crispEdges"/><rect fill="#0c0c0c" x="12.2" y="587.1" width="1415.2" height="24.65" shape-rendering="crispEdges"/><rect fill="#000000" x="1427.4" y="587.1" width="24.4" height="24.65" shape-rendering="crispEdges"/><rect fill="#0c0c0c" x="1451.8" y="587.1" width="12.2" height="24.65" shape-rendering="crispEdges"/><rect fill="#0c0c0c" x="0" y="611.5" width="12.2" height="24.65" shape-rendering="crispEdges"/><rect fill="#0c0c0c" x="12.2" y="611.5" width="1415.2" height="24.65" shape-rendering="crispEdges"/><rect fill="#000000" x="1427.4" y="611.5" width="24.4" height="24.65" shape-rendering="crispEdges"/><rect fill="#0c0c0c" x="1451.8" y="611.5" width="12.2" height="24.65" shape-rendering="crispEdges"/><rect fill="#0c0c0c" x="0" y="635.9" width="12.2" height="24.65" shape-rendering="crispEdges"/><rect fill="#0c0c0c" x="12.2" y="635.9" width="1415.2" height="24.65" shape-rendering="crispEdges"/><rect fill="#000000" x="1427.4" y="635.9" width="24.4" height="24.65" shape-rendering="crispEdges"/><rect fill="#0c0c0c" x="1451.8" y="635.9" width="12.2" height="24.65" shape-rendering="crispEdges"/><rect fill="#0c0c0c" x="0" y="660.3" width="12.2" height="24.65" shape-rendering="crispEdges"/><rect fill="#0c0c0c" x="12.2" y="660.3" width="1415.2" height="24.65" shape-rendering="crispEdges"/><rect fill="#000000" x="1427.4" y="660.3" width="24.4" height="24.65" shape-rendering="crispEdges"/><rect fill="#0c0c0c" x="1451.8" y="660.3" width="12.2" height="24.65" shape-rendering="crispEdges"/><rect fill="#0c0c0c" x="0" y="684.7" width="12.2" height="24.65" shape-rendering="crispEdges"/><rect fill="#0c0c0c" x="12.2" y="684.7" width="1415.2" height="24.65" shape-rendering="crispEdges"/><rect fill="#000000" x="1427.4" y="684.7" width="24.4" height="24.65" shape-rendering="crispEdges"/><rect fill="#0c0c0c" x="1451.8" y="684.7" width="12.2" height="24.65" shape-rendering="crispEdges"/><rect fill="#0c0c0c" x="0" y="709.1" width="12.2" height="24.65" shape-rendering="crispEdges"/><rect fill="#0c0c0c" x="12.2" y="709.1" width="1415.2" height="24.65" shape-rendering="crispEdges"/><rect fill="#000000" x="1427.4" y="709.1" width="24.4" height="24.65" shape-rendering="crispEdges"/><rect fill="#0c0c0c" x="1451.8" y="709.1" width="12.2" height="24.65" shape-rendering="crispEdges"/><rect fill="#0c0c0c" x="0" y="733.5" width="12.2" height="24.65" shape-rendering="crispEdges"/><rect fill="#0c0c0c" x="12.2" y="733.5" width="1415.2" height="24.65" shape-rendering="crispEdges"/><rect fill="#000000" x="1427.4" y="733.5" width="24.4" height="24.65" shape-rendering="crispEdges"/><rect fill="#0c0c0c" x="1451.8" y="733.5" width="12.2" height="24.65" shape-rendering="crispEdges"/><rect fill="#0c0c0c" x="0" y="757.9" width="12.2" height="24.65" shape-rendering="crispEdges"/><rect fill="#0c0c0c" x="12.2" y="757.9" width="1415.2" height="24.65" shape-rendering="crispEdges"/><rect fill="#000000" x="1427.4" y="757.9" width="24.4" height="24.65" shape-rendering="crispEdges"/><rect fill="#0c0c0c" x="1451.8" y="757.9" width="12.2" height="24.65" shape-rendering="crispEdges"/><rect fill="#0c0c0c" x="0" y="782.3" width="12.2" height="24.65" shape-rendering="crispEdges"/><rect fill="#0c0c0c" x="12.2" y="782.3" width="1415.2" height="24.65" shape-rendering="crispEdges"/><rect fill="#000000" x="1427.4" y="782.3" width="24.4" height="24.65" shape-rendering="crispEdges"/><rect fill="#0c0c0c" x="1451.8" y="782.3" width="12.2" height="24.65" shape-rendering="crispEdges"/><rect fill="#0c0c0c" x="0" y="806.7" width="12.2" height="24.65" shape-rendering="crispEdges"/><rect fill="#272727" x="12.2" y="806.7" width="12.2" height="24.65" shape-rendering="crispEdges"/><rect fill="#141414" x="24.4" y="806.7" width="12.2" height="24.65" shape-rendering="crispEdges"/><rect fill="#141414" x="36.6" y="806.7" width="109.8" height="24.65" shape-rendering="crispEdges"/><rect fill="#141414" x="146.4" y="806.7" width="1293.2" height="24.65" shape-rendering="crispEdges"/><rect fill="#0c0c0c" x="1439.6" y="806.7" width="12.2" height="24.65" shape-rendering="crispEdges"/><rect fill="#0c0c0c" x="1451.8" y="806.7" width="12.2" height="24.65" shape-rendering="crispEdges"/><rect fill="#0c0c0c" x="0" y="831.1" width="12.2" height="24.65" shape-rendering="crispEdges"/><rect fill="#272727" x="12.2" y="831.1" width="12.2" height="24.65" shape-rendering="crispEdges"/><rect fill="#141414" x="24.4" y="831.1" width="12.2" height="24.65" shape-rendering="crispEdges"/><rect fill="#1d1d1d" x="36.6" y="831.1" width="61" height="24.65" shape-rendering="crispEdges"/><rect fill="#1d1d1d" x="97.6" y="831.1" width="1329.8" height="24.65" shape-rendering="crispEdges"/><rect fill="#141414" x="1427.4" y="831.1" width="12.2" height="24.65" shape-rendering="crispEdges"/><rect fill="#0c0c0c" x="1439.6" y="831.1" width="12.2" height="24.65" shape-rendering="crispEdges"/><rect fill="#0c0c0c" x="1451.8" y="831.1" width="12.2" height="24.65" shape-rendering="crispEdges"/><rect fill="#0c0c0c" x="0" y="855.5" width="12.2" height="24.65" shape-rendering="crispEdges"/><rect fill="#272727" x="12.2" y="855.5" width="12.2" height="24.65" shape-rendering="crispEdges"/><rect fill="#141414" x="24.4" y="855.5" width="12.2" height="24.65" shape-rendering="crispEdges"/><rect fill="#141414" x="36.6" y="855.5" width="1390.8" height="24.65" shape-rendering="crispEdges"/><rect fill="#141414" x="1427.4" y="855.5" width="12.2" height="24.65" shape-rendering="crispEdges"/><rect fill="#0c0c0c" x="1439.6" y="855.5" width="12.2" height="24.65" shape-rendering="crispEdges"/><rect fill="#0c0c0c" x="1451.8" y="855.5" width="12.2" height="24.65" shape-rendering="crispEdges"/><rect fill="#0c0c0c" x="0" y="879.9" width="12.2" height="24.65" shape-rendering="crispEdges"/><rect fill="#272727" x="12.2" y="879.9" width="12.2" height="24.65" shape-rendering="crispEdges"/><rect fill="#141414" x="24.4" y="879.9" width="12.2" height="24.65" shape-rendering="crispEdges"/><rect fill="#141414" x="36.6" y="879.9" width="1390.8" height="24.65" shape-rendering="crispEdges"/><rect fill="#141414" x="1427.4" y="879.9" width="12.2" height="24.65" shape-rendering="crispEdges"/><rect fill="#0c0c0c" x="1439.6" y="879.9" width="12.2" height="24.65" shape-rendering="crispEdges"/><rect fill="#0c0c0c" x="1451.8" y="879.9" width="12.2" height="24.65" shape-rendering="crispEdges"/><rect fill="#0c0c0c" x="0" y="904.3" width="12.2" height="24.65" shape-rendering="crispEdges"/><rect fill="#272727" x="12.2" y="904.3" width="12.2" height="24.65" shape-rendering="crispEdges"/><rect fill="#141414" x="24.4" y="904.3" width="1415.2" height="24.65" shape-rendering="crispEdges"/><rect fill="#0c0c0c" x="1439.6" y="904.3" width="12.2" height="24.65" shape-rendering="crispEdges"/><rect fill="#0c0c0c" x="1451.8" y="904.3" width="12.2" height="24.65" shape-rendering="crispEdges"/><rect fill="#0c0c0c" x="0" y="928.7" width="12.2" height="24.65" shape-rendering="crispEdges"/><rect fill="#0c0c0c" x="12.2" y="928.7" width="1439.6" height="24.65" shape-rendering="crispEdges"/><rect fill="#0c0c0c" x="1451.8" y="928.7" width="12.2" height="24.65" shape-rendering="crispEdges"/><rect fill="#111111" x="0" y="953.1" width="207.4" height="24.65" shape-rendering="crispEdges"/><rect fill="#111111" x="207.4" y="953.1" width="12.2" height="24.65" shape-rendering="crispEdges"/><rect fill="#111111" x="219.6" y="953.1" width="12.2" height="24.65" shape-rendering="crispEdges"/><rect fill="#111111" x="231.8" y="953.1" width="12.2" height="24.65" shape-rendering="crispEdges"/><rect fill="#111111" x="244" y="953.1" width="256.2" height="24.65" shape-rendering="crispEdges"/><rect fill="#111111" x="500.2" y="953.1" width="12.2" height="24.65" shape-rendering="crispEdges"/><rect fill="#111111" x="512.4" y="953.1" width="12.2" height="24.65" shape-rendering="crispEdges"/><rect fill="#111111" x="524.6" y="953.1" width="12.2" height="24.65" shape-rendering="crispEdges"/><rect fill="#111111" x="536.8" y="953.1" width="12.2" height="24.65" shape-rendering="crispEdges"/><rect fill="#111111" x="549" y="953.1" width="85.4" height="24.65" shape-rendering="crispEdges"/><rect fill="#111111" x="634.4" y="953.1" width="24.4" height="24.65" shape-rendering="crispEdges"/><rect fill="#111111" x="658.8" y="953.1" width="85.4" height="24.65" shape-rendering="crispEdges"/><rect fill="#111111" x="744.2" y="953.1" width="24.4" height="24.65" shape-rendering="crispEdges"/><rect fill="#111111" x="768.6" y="953.1" width="61" height="24.65" shape-rendering="crispEdges"/><rect fill="#111111" x="829.6" y="953.1" width="610" height="24.65" shape-rendering="crispEdges"/><rect fill="#000000" x="1439.6" y="953.1" width="24.4" height="24.65" shape-rendering="crispEdges"/>
    <g class="terminal-3733532963-matrix">
    <text class="terminal-3733532963-r1" x="0" y="20" textLength="36.6" clip-path="url(#terminal-3733532963-line-0)">piy</text><text class="terminal-3733532963-r3" x="48.8" y="20" textLength="146.4" clip-path="url(#terminal-3733532963-line-0)">coding&#160;agent</text><text class="terminal-3733532963-r4" x="1464" y="20" textLength="12.2" clip-path="url(#terminal-3733532963-line-0)">
</text><text class="terminal-3733532963-r2" x="12.2" y="44.4" textLength="48.8" clip-path="url(#terminal-3733532963-line-1)">you:</text><text class="terminal-3733532963-r4" x="1464" y="44.4" textLength="12.2" clip-path="url(#terminal-3733532963-line-1)">
</text><text class="terminal-3733532963-r2" x="12.2" y="68.8" textLength="305" clip-path="url(#terminal-3733532963-line-2)">&#160;&#160;你好，帮我读一下&#160;README.md&#160;的前三行</text><text class="terminal-3733532963-r4" x="1464" y="68.8" textLength="12.2" clip-path="url(#terminal-3733532963-line-2)">
</text><text class="terminal-3733532963-r2" x="12.2" y="93.2" textLength="85.4" clip-path="url(#terminal-3733532963-line-3)">▸&#160;read&#160;</text><text class="terminal-3733532963-r5" x="97.6" y="93.2" textLength="48.8" clip-path="url(#terminal-3733532963-line-3)">path</text><text class="terminal-3733532963-r2" x="146.4" y="93.2" textLength="12.2" clip-path="url(#terminal-3733532963-line-3)">=</text><text class="terminal-3733532963-r6" x="158.6" y="93.2" textLength="134.2" clip-path="url(#terminal-3733532963-line-3)">&#x27;README.md&#x27;</text><text class="terminal-3733532963-r2" x="292.8" y="93.2" textLength="24.4" clip-path="url(#terminal-3733532963-line-3)">,&#160;</text><text class="terminal-3733532963-r5" x="317.2" y="93.2" textLength="73.2" clip-path="url(#terminal-3733532963-line-3)">offset</text><text class="terminal-3733532963-r2" x="390.4" y="93.2" textLength="12.2" clip-path="url(#terminal-3733532963-line-3)">=</text><text class="terminal-3733532963-r7" x="402.6" y="93.2" textLength="12.2" clip-path="url(#terminal-3733532963-line-3)">1</text><text class="terminal-3733532963-r2" x="414.8" y="93.2" textLength="24.4" clip-path="url(#terminal-3733532963-line-3)">,&#160;</text><text class="terminal-3733532963-r5" x="439.2" y="93.2" textLength="61" clip-path="url(#terminal-3733532963-line-3)">limit</text><text class="terminal-3733532963-r2" x="500.2" y="93.2" textLength="12.2" clip-path="url(#terminal-3733532963-line-3)">=</text><text class="terminal-3733532963-r7" x="512.4" y="93.2" textLength="12.2" clip-path="url(#terminal-3733532963-line-3)">3</text><text class="terminal-3733532963-r4" x="1464" y="93.2" textLength="12.2" clip-path="url(#terminal-3733532963-line-3)">
</text><text class="terminal-3733532963-r8" x="12.2" y="117.6" textLength="24.4" clip-path="url(#terminal-3733532963-line-4)">pi</text><text class="terminal-3733532963-r2" x="36.6" y="117.6" textLength="24.4" clip-path="url(#terminal-3733532963-line-4)">&#160;…</text><text class="terminal-3733532963-r4" x="1464" y="117.6" textLength="12.2" clip-path="url(#terminal-3733532963-line-4)">
</text><text class="terminal-3733532963-r2" x="12.2" y="142" textLength="195.2" clip-path="url(#terminal-3733532963-line-5)">&#160;&#160;好的，我先读取&#160;README</text><text class="terminal-3733532963-r4" x="1464" y="142" textLength="12.2" clip-path="url(#terminal-3733532963-line-5)">
</text><text class="terminal-3733532963-r9" x="12.2" y="166.4" textLength="73.2" clip-path="url(#terminal-3733532963-line-6)">&#160;&#160;read</text><text class="terminal-3733532963-r10" x="97.6" y="166.4" textLength="48.8" clip-path="url(#terminal-3733532963-line-6)">done</text><text class="terminal-3733532963-r9" x="158.6" y="166.4" textLength="268.4" clip-path="url(#terminal-3733532963-line-6)">#&#160;pi-python&#160;&#160;Python&#160;实现</text><text class="terminal-3733532963-r11" x="451.4" y="166.4" textLength="36.6" clip-path="url(#terminal-3733532963-line-6)">...</text><text class="terminal-3733532963-r4" x="1464" y="166.4" textLength="12.2" clip-path="url(#terminal-3733532963-line-6)">
</text><text class="terminal-3733532963-r12" x="12.2" y="190.8" textLength="24.4" clip-path="url(#terminal-3733532963-line-7)">pi</text><text class="terminal-3733532963-r4" x="1464" y="190.8" textLength="12.2" clip-path="url(#terminal-3733532963-line-7)">
</text><text class="terminal-3733532963-r2" x="12.2" y="215.2" textLength="207.4" clip-path="url(#terminal-3733532963-line-8)">&#160;&#160;已读取&#160;README&#160;前三行：</text><text class="terminal-3733532963-r4" x="1464" y="215.2" textLength="12.2" clip-path="url(#terminal-3733532963-line-8)">
</text><text class="terminal-3733532963-r2" x="12.2" y="239.6" textLength="158.6" clip-path="url(#terminal-3733532963-line-9)">&#160;&#160;#&#160;pi-python</text><text class="terminal-3733532963-r4" x="1464" y="239.6" textLength="12.2" clip-path="url(#terminal-3733532963-line-9)">
</text><text class="terminal-3733532963-r4" x="1464" y="264" textLength="12.2" clip-path="url(#terminal-3733532963-line-10)">
</text><text class="terminal-3733532963-r2" x="12.2" y="288.4" textLength="158.6" clip-path="url(#terminal-3733532963-line-11)">&#160;&#160;Python&#160;实现对齐</text><text class="terminal-3733532963-r5" x="219.6" y="288.4" textLength="36.6" clip-path="url(#terminal-3733532963-line-11)">...</text><text class="terminal-3733532963-r4" x="1464" y="288.4" textLength="12.2" clip-path="url(#terminal-3733532963-line-11)">
</text><text class="terminal-3733532963-r4" x="1464" y="312.8" textLength="12.2" clip-path="url(#terminal-3733532963-line-12)">
</text><text class="terminal-3733532963-r4" x="1464" y="337.2" textLength="12.2" clip-path="url(#terminal-3733532963-line-13)">
</text><text class="terminal-3733532963-r4" x="1464" y="361.6" textLength="12.2" clip-path="url(#terminal-3733532963-line-14)">
</text><text class="terminal-3733532963-r4" x="1464" y="386" textLength="12.2" clip-path="url(#terminal-3733532963-line-15)">
</text><text class="terminal-3733532963-r4" x="1464" y="410.4" textLength="12.2" clip-path="url(#terminal-3733532963-line-16)">
</text><text class="terminal-3733532963-r4" x="1464" y="434.8" textLength="12.2" clip-path="url(#terminal-3733532963-line-17)">
</text><text class="terminal-3733532963-r4" x="1464" y="459.2" textLength="12.2" clip-path="url(#terminal-3733532963-line-18)">
</text><text class="terminal-3733532963-r4" x="1464" y="483.6" textLength="12.2" clip-path="url(#terminal-3733532963-line-19)">
</text><text class="terminal-3733532963-r4" x="1464" y="508" textLength="12.2" clip-path="url(#terminal-3733532963-line-20)">
</text><text class="terminal-3733532963-r4" x="1464" y="532.4" textLength="12.2" clip-path="url(#terminal-3733532963-line-21)">
</text><text class="terminal-3733532963-r4" x="1464" y="556.8" textLength="12.2" clip-path="url(#terminal-3733532963-line-22)">
</text><text class="terminal-3733532963-r4" x="1464" y="581.2" textLength="12.2" clip-path="url(#terminal-3733532963-line-23)">
</text><text class="terminal-3733532963-r4" x="1464" y="605.6" textLength="12.2" clip-path="url(#terminal-3733532963-line-24)">
</text><text class="terminal-3733532963-r4" x="1464" y="630" textLength="12.2" clip-path="url(#terminal-3733532963-line-25)">
</text><text class="terminal-3733532963-r4" x="1464" y="654.4" textLength="12.2" clip-path="url(#terminal-3733532963-line-26)">
</text><text class="terminal-3733532963-r4" x="1464" y="678.8" textLength="12.2" clip-path="url(#terminal-3733532963-line-27)">
</text><text class="terminal-3733532963-r4" x="1464" y="703.2" textLength="12.2" clip-path="url(#terminal-3733532963-line-28)">
</text><text class="terminal-3733532963-r4" x="1464" y="727.6" textLength="12.2" clip-path="url(#terminal-3733532963-line-29)">
</text><text class="terminal-3733532963-r4" x="1464" y="752" textLength="12.2" clip-path="url(#terminal-3733532963-line-30)">
</text><text class="terminal-3733532963-r4" x="1464" y="776.4" textLength="12.2" clip-path="url(#terminal-3733532963-line-31)">
</text><text class="terminal-3733532963-r4" x="1464" y="800.8" textLength="12.2" clip-path="url(#terminal-3733532963-line-32)">
</text><text class="terminal-3733532963-r13" x="12.2" y="825.2" textLength="12.2" clip-path="url(#terminal-3733532963-line-33)">▊</text><text class="terminal-3733532963-r14" x="24.4" y="825.2" textLength="12.2" clip-path="url(#terminal-3733532963-line-33)">▔</text><text class="terminal-3733532963-r15" x="36.6" y="825.2" textLength="109.8" clip-path="url(#terminal-3733532963-line-33)">&#160;message&#160;</text><text class="terminal-3733532963-r14" x="146.4" y="825.2" textLength="1293.2" clip-path="url(#terminal-3733532963-line-33)">▔▔▔▔▔▔▔▔▔▔▔▔▔▔▔▔▔▔▔▔▔▔▔▔▔▔▔▔▔▔▔▔▔▔▔▔▔▔▔▔▔▔▔▔▔▔▔▔▔▔▔▔▔▔▔▔▔▔▔▔▔▔▔▔▔▔▔▔▔▔▔▔▔▔▔▔▔▔▔▔▔▔▔▔▔▔▔▔▔▔▔▔▔▔▔▔▔▔▔▔▔▔▔▔▔▔</text><text class="terminal-3733532963-r14" x="1439.6" y="825.2" textLength="12.2" clip-path="url(#terminal-3733532963-line-33)">▎</text><text class="terminal-3733532963-r4" x="1464" y="825.2" textLength="12.2" clip-path="url(#terminal-3733532963-line-33)">
</text><text class="terminal-3733532963-r13" x="12.2" y="849.6" textLength="12.2" clip-path="url(#terminal-3733532963-line-34)">▊</text><text class="terminal-3733532963-r2" x="36.6" y="849.6" textLength="36.6" clip-path="url(#terminal-3733532963-line-34)">继续&#160;</text><text class="terminal-3733532963-r14" x="1439.6" y="849.6" textLength="12.2" clip-path="url(#terminal-3733532963-line-34)">▎</text><text class="terminal-3733532963-r4" x="1464" y="849.6" textLength="12.2" clip-path="url(#terminal-3733532963-line-34)">
</text><text class="terminal-3733532963-r13" x="12.2" y="874" textLength="12.2" clip-path="url(#terminal-3733532963-line-35)">▊</text><text class="terminal-3733532963-r14" x="1439.6" y="874" textLength="12.2" clip-path="url(#terminal-3733532963-line-35)">▎</text><text class="terminal-3733532963-r4" x="1464" y="874" textLength="12.2" clip-path="url(#terminal-3733532963-line-35)">
</text><text class="terminal-3733532963-r13" x="12.2" y="898.4" textLength="12.2" clip-path="url(#terminal-3733532963-line-36)">▊</text><text class="terminal-3733532963-r14" x="1439.6" y="898.4" textLength="12.2" clip-path="url(#terminal-3733532963-line-36)">▎</text><text class="terminal-3733532963-r4" x="1464" y="898.4" textLength="12.2" clip-path="url(#terminal-3733532963-line-36)">
</text><text class="terminal-3733532963-r13" x="12.2" y="922.8" textLength="12.2" clip-path="url(#terminal-3733532963-line-37)">▊</text><text class="terminal-3733532963-r14" x="24.4" y="922.8" textLength="1415.2" clip-path="url(#terminal-3733532963-line-37)">▁▁▁▁▁▁▁▁▁▁▁▁▁▁▁▁▁▁▁▁▁▁▁▁▁▁▁▁▁▁▁▁▁▁▁▁▁▁▁▁▁▁▁▁▁▁▁▁▁▁▁▁▁▁▁▁▁▁▁▁▁▁▁▁▁▁▁▁▁▁▁▁▁▁▁▁▁▁▁▁▁▁▁▁▁▁▁▁▁▁▁▁▁▁▁▁▁▁▁▁▁▁▁▁▁▁▁▁▁▁▁▁▁▁▁▁</text><text class="terminal-3733532963-r14" x="1439.6" y="922.8" textLength="12.2" clip-path="url(#terminal-3733532963-line-37)">▎</text><text class="terminal-3733532963-r4" x="1464" y="922.8" textLength="12.2" clip-path="url(#terminal-3733532963-line-37)">
</text><text class="terminal-3733532963-r4" x="1464" y="947.2" textLength="12.2" clip-path="url(#terminal-3733532963-line-38)">
</text><text class="terminal-3733532963-r16" x="0" y="971.6" textLength="207.4" clip-path="url(#terminal-3733532963-line-39)">deepseek-v4-flash</text><text class="terminal-3733532963-r17" x="219.6" y="971.6" textLength="12.2" clip-path="url(#terminal-3733532963-line-39)">│</text><text class="terminal-3733532963-r18" x="244" y="971.6" textLength="256.2" clip-path="url(#terminal-3733532963-line-39)">~/Documents/pi-python</text><text class="terminal-3733532963-r17" x="512.4" y="971.6" textLength="12.2" clip-path="url(#terminal-3733532963-line-39)">│</text><text class="terminal-3733532963-r12" x="536.8" y="971.6" textLength="12.2" clip-path="url(#terminal-3733532963-line-39)">↵</text><text class="terminal-3733532963-r2" x="549" y="971.6" textLength="61" clip-path="url(#terminal-3733532963-line-39)">&#160;发送&#160;&#160;</text><text class="terminal-3733532963-r12" x="634.4" y="971.6" textLength="24.4" clip-path="url(#terminal-3733532963-line-39)">⇧↵</text><text class="terminal-3733532963-r2" x="658.8" y="971.6" textLength="61" clip-path="url(#terminal-3733532963-line-39)">&#160;换行&#160;&#160;</text><text class="terminal-3733532963-r12" x="744.2" y="971.6" textLength="24.4" clip-path="url(#terminal-3733532963-line-39)">⌃C</text><text class="terminal-3733532963-r2" x="768.6" y="971.6" textLength="36.6" clip-path="url(#terminal-3733532963-line-39)">&#160;退出</text>
    </g>
    </g>
</svg>
