<svg class="rich-terminal" viewBox="0 0 994 635.5999999999999" xmlns="http://www.w3.org/2000/svg">
    <!-- Generated with Rich https://www.textualize.io -->
    <style>

    @font-face {
        font-family: "Fira Code";
        src: local("FiraCode-Regular"),
                url("https://cdnjs.cloudflare.com/ajax/libs/firacode/6.2.0/woff2/FiraCode-Regular.woff2") format("woff2"),
                url("https://cdnjs.cloudflare.com/ajax/libs/firacode/6.2.0/woff/FiraCode-Regular.woff") format("woff");
        font-style: normal;
        font-weight: 400;
    }
    @font-face {
        font-family: "Fira Code";
        src: local("FiraCode-Bold"),
                url("https://cdnjs.cloudflare.com/ajax/libs/firacode/6.2.0/woff2/FiraCode-Bold.woff2") format("woff2"),
                url("https://cdnjs.cloudflare.com/ajax/libs/firacode/6.2.0/woff/FiraCode-Bold.woff") format("woff");
        font-style: bold;
        font-weight: 700;
    }

    .terminal-1767742895-matrix {
        font-family: Fira Code, monospace;
        font-size: 20px;
        line-height: 24.4px;
        font-variant-east-asian: full-width;
    }

    .terminal-1767742895-title {
        font-size: 18px;
        font-weight: bold;
        font-family: arial;
    }

    .terminal-1767742895-r1 { fill: #e4e4e4;font-weight: bold }
.terminal-1767742895-r2 { fill: #e0e0e0 }
.terminal-1767742895-r3 { fill: #999999 }
.terminal-1767742895-r4 { fill: #c5c8c6 }
.terminal-1767742895-r5 { fill: #d4d4d4;font-weight: bold }
.terminal-1767742895-r6 { fill: #d4d4d4 }
.terminal-1767742895-r7 { fill: #909090 }
.terminal-1767742895-r8 { fill: #adadad }
.terminal-1767742895-r9 { fill: #0c0c0c }
.terminal-1767742895-r10 { fill: #404040 }
.terminal-1767742895-r11 { fill: #121212 }
.terminal-1767742895-r12 { fill: #c4c4c4 }
.terminal-1767742895-r13 { fill: #727272 }
.terminal-1767742895-r14 { fill: #e0e0e0;font-weight: bold }
    </style>

    <defs>
    <clipPath id="terminal-1767742895-clip-terminal">
      <rect x="0" y="0" width="975.0" height="584.5999999999999" />
    </clipPath>
    <clipPath id="terminal-1767742895-line-0">
    <rect x="0" y="1.5" width="976" height="24.65"/>
            </clipPath>
<clipPath id="terminal-1767742895-line-1">
    <rect x="0" y="25.9" width="976" height="24.65"/>
            </clipPath>
<clipPath id="terminal-1767742895-line-2">
    <rect x="0" y="50.3" width="976" height="24.65"/>
            </clipPath>
<clipPath id="terminal-1767742895-line-3">
    <rect x="0" y="74.7" width="976" height="24.65"/>
            </clipPath>
<clipPath id="terminal-1767742895-line-4">
    <rect x="0" y="99.1" width="976" height="24.65"/>
            </clipPath>
<clipPath id="terminal-1767742895-line-5">
    <rect x="0" y="123.5" width="976" height="24.65"/>
            </clipPath>
<clipPath id="terminal-1767742895-line-6">
    <rect x="0" y="147.9" width="976" height="24.65"/>
            </clipPath>
<clipPath id="terminal-1767742895-line-7">
    <rect x="0" y="172.3" width="976" height="24.65"/>
            </clipPath>
<clipPath id="terminal-1767742895-line-8">
    <rect x="0" y="196.7" width="976" height="24.65"/>
            </clipPath>
<clipPath id="terminal-1767742895-line-9">
    <rect x="0" y="221.1" width="976" height="24.65"/>
            </clipPath>
<clipPath id="terminal-1767742895-line-10">
    <rect x="0" y="245.5" width="976" height="24.65"/>
            </clipPath>
<clipPath id="terminal-1767742895-line-11">
    <rect x="0" y="269.9" width="976" height="24.65"/>
            </clipPath>
<clipPath id="terminal-1767742895-line-12">
    <rect x="0" y="294.3" width="976" height="24.65"/>
            </clipPath>
<clipPath id="terminal-1767742895-line-13">
    <rect x="0" y="318.7" width="976" height="24.65"/>
            </clipPath>
<clipPath id="terminal-1767742895-line-14">
    <rect x="0" y="343.1" width="976" height="24.65"/>
            </clipPath>
<clipPath id="terminal-1767742895-line-15">
    <rect x="0" y="367.5" width="976" height="24.65"/>
            </clipPath>
<clipPath id="terminal-1767742895-line-16">
    <rect x="0" y="391.9" width="976" height="24.65"/>
            </clipPath>
<clipPath id="terminal-1767742895-line-17">
    <rect x="0" y="416.3" width="976" height="24.65"/>
            </clipPath>
<clipPath id="terminal-1767742895-line-18">
    <rect x="0" y="440.7" width="976" height="24.65"/>
            </clipPath>
<clipPath id="terminal-1767742895-line-19">
    <rect x="0" y="465.1" width="976" height="24.65"/>
            </clipPath>
<clipPath id="terminal-1767742895-line-20">
    <rect x="0" y="489.5" width="976" height="24.65"/>
            </clipPath>
<clipPath id="terminal-1767742895-line-21">
    <rect x="0" y="513.9" width="976" height="24.65"/>
            </clipPath>
<clipPath id="terminal-1767742895-line-22">
    <rect x="0" y="538.3" width="976" height="24.65"/>
            </clipPath>
    </defs>

    <rect fill="#292929" stroke="rgba(255,255,255,0.35)" stroke-width="1" x="1" y="1" width="992" height="633.6" rx="8"/><text class="terminal-1767742895-title" fill="#c5c8c6" text-anchor="middle" x="496" y="27">CodingApp</text>
            <g transform="translate(26,22)">
            <circle cx="0" cy="0" r="7" fill="#ff5f57"/>
            <circle cx="22" cy="0" r="7" fill="#febc2e"/>
            <circle cx="44" cy="0" r="7" fill="#28c840"/>
            </g>
        
    <g transform="translate(9, 41)" clip-path="url(#terminal-1767742895-clip-terminal)">
    <rect fill="#111111" x="0" y="1.5" width="36.6" height="24.65" shape-rendering="crispEdges"/><rect fill="#111111" x="36.6" y="1.5" width="12.2" height="24.65" shape-rendering="crispEdges"/><rect fill="#111111" x="48.8" y="1.5" width="146.4" height="24.65" shape-rendering="crispEdges"/><rect fill="#111111" x="195.2" y="1.5" width="780.8" height="24.65" shape-rendering="crispEdges"/><rect fill="#0c0c0c" x="0" y="25.9" width="12.2" height="24.65" shape-rendering="crispEdges"/><rect fill="#0c0c0c" x="12.2" y="25.9" width="36.6" height="24.65" shape-rendering="crispEdges"/><rect fill="#0c0c0c" x="48.8" y="25.9" width="915" height="24.65" shape-rendering="crispEdges"/><rect fill="#0c0c0c" x="963.8" y="25.9" width="12.2" height="24.65" shape-rendering="crispEdges"/><rect fill="#0c0c0c" x="0" y="50.3" width="12.2" height="24.65" shape-rendering="crispEdges"/><rect fill="#0c0c0c" x="12.2" y="50.3" width="451.4" height="24.65" shape-rendering="crispEdges"/><rect fill="#0c0c0c" x="463.6" y="50.3" width="500.2" height="24.65" shape-rendering="crispEdges"/><rect fill="#0c0c0c" x="963.8" y="50.3" width="12.2" height="24.65" shape-rendering="crispEdges"/><rect fill="#0c0c0c" x="0" y="74.7" width="12.2" height="24.65" shape-rendering="crispEdges"/><rect fill="#0c0c0c" x="12.2" y="74.7" width="0" height="24.65" shape-rendering="crispEdges"/><rect fill="#0c0c0c" x="12.2" y="74.7" width="951.6" height="24.65" shape-rendering="crispEdges"/><rect fill="#0c0c0c" x="963.8" y="74.7" width="12.2" height="24.65" shape-rendering="crispEdges"/><rect fill="#0c0c0c" x="0" y="99.1" width="12.2" height="24.65" shape-rendering="crispEdges"/><rect fill="#0c0c0c" x="12.2" y="99.1" width="73.2" height="24.65" shape-rendering="crispEdges"/><rect fill="#0c0c0c" x="85.4" y="99.1" width="12.2" height="24.65" shape-rendering="crispEdges"/><rect fill="#0c0c0c" x="97.6" y="99.1" width="427" height="24.65" shape-rendering="crispEdges"/><rect fill="#0c0c0c" x="524.6" y="99.1" width="439.2" height="24.65" shape-rendering="crispEdges"/><rect fill="#0c0c0c" x="963.8" y="99.1" width="12.2" height="24.65" shape-rendering="crispEdges"/><rect fill="#0c0c0c" x="0" y="123.5" width="12.2" height="24.65" shape-rendering="crispEdges"/><rect fill="#0c0c0c" x="12.2" y="123.5" width="0" height="24.65" shape-rendering="crispEdges"/><rect fill="#0c0c0c" x="12.2" y="123.5" width="951.6" height="24.65" shape-rendering="crispEdges"/><rect fill="#0c0c0c" x="963.8" y="123.5" width="12.2" height="24.65" shape-rendering="crispEdges"/><rect fill="#0c0c0c" x="0" y="147.9" width="12.2" height="24.65" shape-rendering="crispEdges"/><rect fill="#0c0c0c" x="12.2" y="147.9" width="73.2" height="24.65" shape-rendering="crispEdges"/><rect fill="#0c0c0c" x="85.4" y="147.9" width="12.2" height="24.65" shape-rendering="crispEdges"/><rect fill="#0c0c0c" x="97.6" y="147.9" width="48.8" height="24.65" shape-rendering="crispEdges"/><rect fill="#0c0c0c" x="146.4" y="147.9" width="12.2" height="24.65" shape-rendering="crispEdges"/><rect fill="#0c0c0c" x="158.6" y="147.9" width="329.4" height="24.65" shape-rendering="crispEdges"/><rect fill="#0c0c0c" x="488" y="147.9" width="475.8" height="24.65" shape-rendering="crispEdges"/><rect fill="#0c0c0c" x="963.8" y="147.9" width="12.2" height="24.65" shape-rendering="crispEdges"/><rect fill="#0c0c0c" x="0" y="172.3" width="12.2" height="24.65" shape-rendering="crispEdges"/><rect fill="#0c0c0c" x="12.2" y="172.3" width="0" height="24.65" shape-rendering="crispEdges"/><rect fill="#0c0c0c" x="12.2" y="172.3" width="951.6" height="24.65" shape-rendering="crispEdges"/><rect fill="#0c0c0c" x="963.8" y="172.3" width="12.2" height="24.65" shape-rendering="crispEdges"/><rect fill="#0c0c0c" x="0" y="196.7" width="12.2" height="24.65" shape-rendering="crispEdges"/><rect fill="#0c0c0c" x="12.2" y="196.7" width="24.4" height="24.65" shape-rendering="crispEdges"/><rect fill="#0c0c0c" x="36.6" y="196.7" width="927.2" height="24.65" shape-rendering="crispEdges"/><rect fill="#0c0c0c" x="963.8" y="196.7" width="12.2" height="24.65" shape-rendering="crispEdges"/><rect fill="#0c0c0c" x="0" y="221.1" width="12.2" height="24.65" shape-rendering="crispEdges"/><rect fill="#0c0c0c" x="12.2" y="221.1" width="292.8" height="24.65" shape-rendering="crispEdges"/><rect fill="#0c0c0c" x="305" y="221.1" width="658.8" height="24.65" shape-rendering="crispEdges"/><rect fill="#0c0c0c" x="963.8" y="221.1" width="12.2" height="24.65" shape-rendering="crispEdges"/><rect fill="#0c0c0c" x="0" y="245.5" width="12.2" height="24.65" shape-rendering="crispEdges"/><rect fill="#0c0c0c" x="12.2" y="245.5" width="158.6" height="24.65" shape-rendering="crispEdges"/><rect fill="#0c0c0c" x="170.8" y="245.5" width="793" height="24.65" shape-rendering="crispEdges"/><rect fill="#0c0c0c" x="963.8" y="245.5" width="12.2" height="24.65" shape-rendering="crispEdges"/><rect fill="#0c0c0c" x="0" y="269.9" width="12.2" height="24.65" shape-rendering="crispEdges"/><rect fill="#0c0c0c" x="12.2" y="269.9" width="24.4" height="24.65" shape-rendering="crispEdges"/><rect fill="#0c0c0c" x="36.6" y="269.9" width="927.2" height="24.65" shape-rendering="crispEdges"/><rect fill="#0c0c0c" x="963.8" y="269.9" width="12.2" height="24.65" shape-rendering="crispEdges"/><rect fill="#0c0c0c" x="0" y="294.3" width="12.2" height="24.65" shape-rendering="crispEdges"/><rect fill="#0c0c0c" x="12.2" y="294.3" width="244" height="24.65" shape-rendering="crispEdges"/><rect fill="#0c0c0c" x="256.2" y="294.3" width="707.6" height="24.65" shape-rendering="crispEdges"/><rect fill="#0c0c0c" x="963.8" y="294.3" width="12.2" height="24.65" shape-rendering="crispEdges"/><rect fill="#0c0c0c" x="0" y="318.7" width="12.2" height="24.65" shape-rendering="crispEdges"/><rect fill="#0c0c0c" x="12.2" y="318.7" width="951.6" height="24.65" shape-rendering="crispEdges"/><rect fill="#0c0c0c" x="963.8" y="318.7" width="12.2" height="24.65" shape-rendering="crispEdges"/><rect fill="#0c0c0c" x="0" y="343.1" width="12.2" height="24.65" shape-rendering="crispEdges"/><rect fill="#0c0c0c" x="12.2" y="343.1" width="951.6" height="24.65" shape-rendering="crispEdges"/><rect fill="#0c0c0c" x="963.8" y="343.1" width="12.2" height="24.65" shape-rendering="crispEdges"/><rect fill="#0c0c0c" x="0" y="367.5" width="12.2" height="24.65" shape-rendering="crispEdges"/><rect fill="#0c0c0c" x="12.2" y="367.5" width="951.6" height="24.65" shape-rendering="crispEdges"/><rect fill="#0c0c0c" x="963.8" y="367.5" width="12.2" height="24.65" shape-rendering="crispEdges"/><rect fill="#0c0c0c" x="0" y="391.9" width="12.2" height="24.65" shape-rendering="crispEdges"/><rect fill="#0c0c0c" x="12.2" y="391.9" width="951.6" height="24.65" shape-rendering="crispEdges"/><rect fill="#0c0c0c" x="963.8" y="391.9" width="12.2" height="24.65" shape-rendering="crispEdges"/><rect fill="#0c0c0c" x="0" y="416.3" width="12.2" height="24.65" shape-rendering="crispEdges"/><rect fill="#404040" x="12.2" y="416.3" width="12.2" height="24.65" shape-rendering="crispEdges"/><rect fill="#141414" x="24.4" y="416.3" width="12.2" height="24.65" shape-rendering="crispEdges"/><rect fill="#141414" x="36.6" y="416.3" width="109.8" height="24.65" shape-rendering="crispEdges"/><rect fill="#141414" x="146.4" y="416.3" width="805.2" height="24.65" shape-rendering="crispEdges"/><rect fill="#0c0c0c" x="951.6" y="416.3" width="12.2" height="24.65" shape-rendering="crispEdges"/><rect fill="#0c0c0c" x="963.8" y="416.3" width="12.2" height="24.65" shape-rendering="crispEdges"/><rect fill="#0c0c0c" x="0" y="440.7" width="12.2" height="24.65" shape-rendering="crispEdges"/><rect fill="#404040" x="12.2" y="440.7" width="12.2" height="24.65" shape-rendering="crispEdges"/><rect fill="#141414" x="24.4" y="440.7" width="12.2" height="24.65" shape-rendering="crispEdges"/><rect fill="#e0e0e0" x="36.6" y="440.7" width="24.4" height="24.65" shape-rendering="crispEdges"/><rect fill="#1d1d1d" x="61" y="440.7" width="36.6" height="24.65" shape-rendering="crispEdges"/><rect fill="#1d1d1d" x="97.6" y="440.7" width="841.8" height="24.65" shape-rendering="crispEdges"/><rect fill="#141414" x="939.4" y="440.7" width="12.2" height="24.65" shape-rendering="crispEdges"/><rect fill="#0c0c0c" x="951.6" y="440.7" width="12.2" height="24.65" shape-rendering="crispEdges"/><rect fill="#0c0c0c" x="963.8" y="440.7" width="12.2" height="24.65" shape-rendering="crispEdges"/><rect fill="#0c0c0c" x="0" y="465.1" width="12.2" height="24.65" shape-rendering="crispEdges"/><rect fill="#404040" x="12.2" y="465.1" width="12.2" height="24.65" shape-rendering="crispEdges"/><rect fill="#141414" x="24.4" y="465.1" width="12.2" height="24.65" shape-rendering="crispEdges"/><rect fill="#141414" x="36.6" y="465.1" width="902.8" height="24.65" shape-rendering="crispEdges"/><rect fill="#141414" x="939.4" y="465.1" width="12.2" height="24.65" shape-rendering="crispEdges"/><rect fill="#0c0c0c" x="951.6" y="465.1" width="12.2" height="24.65" shape-rendering="crispEdges"/><rect fill="#0c0c0c" x="963.8" y="465.1" width="12.2" height="24.65" shape-rendering="crispEdges"/><rect fill="#0c0c0c" x="0" y="489.5" width="12.2" height="24.65" shape-rendering="crispEdges"/><rect fill="#404040" x="12.2" y="489.5" width="12.2" height="24.65" shape-rendering="crispEdges"/><rect fill="#141414" x="24.4" y="489.5" width="12.2" height="24.65" shape-rendering="crispEdges"/><rect fill="#141414" x="36.6" y="489.5" width="902.8" height="24.65" shape-rendering="crispEdges"/><rect fill="#141414" x="939.4" y="489.5" width="12.2" height="24.65" shape-rendering="crispEdges"/><rect fill="#0c0c0c" x="951.6" y="489.5" width="12.2" height="24.65" shape-rendering="crispEdges"/><rect fill="#0c0c0c" x="963.8" y="489.5" width="12.2" height="24.65" shape-rendering="crispEdges"/><rect fill="#0c0c0c" x="0" y="513.9" width="12.2" height="24.65" shape-rendering="crispEdges"/><rect fill="#404040" x="12.2" y="513.9" width="12.2" height="24.65" shape-rendering="crispEdges"/><rect fill="#141414" x="24.4" y="513.9" width="927.2" height="24.65" shape-rendering="crispEdges"/><rect fill="#0c0c0c" x="951.6" y="513.9" width="12.2" height="24.65" shape-rendering="crispEdges"/><rect fill="#0c0c0c" x="963.8" y="513.9" width="12.2" height="24.65" shape-rendering="crispEdges"/><rect fill="#0c0c0c" x="0" y="538.3" width="12.2" height="24.65" shape-rendering="crispEdges"/><rect fill="#0c0c0c" x="12.2" y="538.3" width="951.6" height="24.65" shape-rendering="crispEdges"/><rect fill="#0c0c0c" x="963.8" y="538.3" width="12.2" height="24.65" shape-rendering="crispEdges"/><rect fill="#111111" x="0" y="562.7" width="207.4" height="24.65" shape-rendering="crispEdges"/><rect fill="#111111" x="207.4" y="562.7" width="12.2" height="24.65" shape-rendering="crispEdges"/><rect fill="#111111" x="219.6" y="562.7" width="12.2" height="24.65" shape-rendering="crispEdges"/><rect fill="#111111" x="231.8" y="562.7" width="12.2" height="24.65" shape-rendering="crispEdges"/><rect fill="#111111" x="244" y="562.7" width="256.2" height="24.65" shape-rendering="crispEdges"/><rect fill="#111111" x="500.2" y="562.7" width="12.2" height="24.65" shape-rendering="crispEdges"/><rect fill="#111111" x="512.4" y="562.7" width="12.2" height="24.65" shape-rendering="crispEdges"/><rect fill="#111111" x="524.6" y="562.7" width="12.2" height="24.65" shape-rendering="crispEdges"/><rect fill="#111111" x="536.8" y="562.7" width="12.2" height="24.65" shape-rendering="crispEdges"/><rect fill="#111111" x="549" y="562.7" width="85.4" height="24.65" shape-rendering="crispEdges"/><rect fill="#111111" x="634.4" y="562.7" width="24.4" height="24.65" shape-rendering="crispEdges"/><rect fill="#111111" x="658.8" y="562.7" width="85.4" height="24.65" shape-rendering="crispEdges"/><rect fill="#111111" x="744.2" y="562.7" width="24.4" height="24.65" shape-rendering="crispEdges"/><rect fill="#111111" x="768.6" y="562.7" width="61" height="24.65" shape-rendering="crispEdges"/><rect fill="#111111" x="829.6" y="562.7" width="146.4" height="24.65" shape-rendering="crispEdges"/>
    <g class="terminal-1767742895-matrix">
    <text class="terminal-1767742895-r1" x="0" y="20" textLength="36.6" clip-path="url(#terminal-1767742895-line-0)">piy</text><text class="terminal-1767742895-r3" x="48.8" y="20" textLength="146.4" clip-path="url(#terminal-1767742895-line-0)">coding&#160;agent</text><text class="terminal-1767742895-r4" x="976" y="20" textLength="12.2" clip-path="url(#terminal-1767742895-line-0)">
</text><text class="terminal-1767742895-r5" x="12.2" y="44.4" textLength="36.6" clip-path="url(#terminal-1767742895-line-1)">you</text><text class="terminal-1767742895-r4" x="976" y="44.4" textLength="12.2" clip-path="url(#terminal-1767742895-line-1)">
</text><text class="terminal-1767742895-r6" x="12.2" y="68.8" textLength="305" clip-path="url(#terminal-1767742895-line-2)">&#160;&#160;你好，帮我读一下&#160;README.md&#160;的前三行</text><text class="terminal-1767742895-r4" x="976" y="68.8" textLength="12.2" clip-path="url(#terminal-1767742895-line-2)">
</text><text class="terminal-1767742895-r4" x="976" y="93.2" textLength="12.2" clip-path="url(#terminal-1767742895-line-3)">
</text><text class="terminal-1767742895-r3" x="12.2" y="117.6" textLength="73.2" clip-path="url(#terminal-1767742895-line-4)">▸&#160;read</text><text class="terminal-1767742895-r7" x="97.6" y="117.6" textLength="427" clip-path="url(#terminal-1767742895-line-4)">path=&#x27;README.md&#x27;,&#160;offset=1,&#160;limit=3</text><text class="terminal-1767742895-r4" x="976" y="117.6" textLength="12.2" clip-path="url(#terminal-1767742895-line-4)">
</text><text class="terminal-1767742895-r4" x="976" y="142" textLength="12.2" clip-path="url(#terminal-1767742895-line-5)">
</text><text class="terminal-1767742895-r7" x="12.2" y="166.4" textLength="73.2" clip-path="url(#terminal-1767742895-line-6)">&#160;&#160;read</text><text class="terminal-1767742895-r8" x="97.6" y="166.4" textLength="48.8" clip-path="url(#terminal-1767742895-line-6)">done</text><text class="terminal-1767742895-r7" x="158.6" y="166.4" textLength="305" clip-path="url(#terminal-1767742895-line-6)">#&#160;pi-python&#160;&#160;Python&#160;实现...</text><text class="terminal-1767742895-r4" x="976" y="166.4" textLength="12.2" clip-path="url(#terminal-1767742895-line-6)">
</text><text class="terminal-1767742895-r4" x="976" y="190.8" textLength="12.2" clip-path="url(#terminal-1767742895-line-7)">
</text><text class="terminal-1767742895-r5" x="12.2" y="215.2" textLength="24.4" clip-path="url(#terminal-1767742895-line-8)">pi</text><text class="terminal-1767742895-r4" x="976" y="215.2" textLength="12.2" clip-path="url(#terminal-1767742895-line-8)">
</text><text class="terminal-1767742895-r6" x="12.2" y="239.6" textLength="207.4" clip-path="url(#terminal-1767742895-line-9)">&#160;&#160;已读取&#160;README&#160;前三行：</text><text class="terminal-1767742895-r4" x="976" y="239.6" textLength="12.2" clip-path="url(#terminal-1767742895-line-9)">
</text><text class="terminal-1767742895-r6" x="12.2" y="264" textLength="158.6" clip-path="url(#terminal-1767742895-line-10)">&#160;&#160;#&#160;pi-python</text><text class="terminal-1767742895-r4" x="976" y="264" textLength="12.2" clip-path="url(#terminal-1767742895-line-10)">
</text><text class="terminal-1767742895-r4" x="976" y="288.4" textLength="12.2" clip-path="url(#terminal-1767742895-line-11)">
</text><text class="terminal-1767742895-r6" x="12.2" y="312.8" textLength="195.2" clip-path="url(#terminal-1767742895-line-12)">&#160;&#160;Python&#160;实现对齐...</text><text class="terminal-1767742895-r4" x="976" y="312.8" textLength="12.2" clip-path="url(#terminal-1767742895-line-12)">
</text><text class="terminal-1767742895-r4" x="976" y="337.2" textLength="12.2" clip-path="url(#terminal-1767742895-line-13)">
</text><text class="terminal-1767742895-r4" x="976" y="361.6" textLength="12.2" clip-path="url(#terminal-1767742895-line-14)">
</text><text class="terminal-1767742895-r4" x="976" y="386" textLength="12.2" clip-path="url(#terminal-1767742895-line-15)">
</text><text class="terminal-1767742895-r4" x="976" y="410.4" textLength="12.2" clip-path="url(#terminal-1767742895-line-16)">
</text><text class="terminal-1767742895-r9" x="12.2" y="434.8" textLength="12.2" clip-path="url(#terminal-1767742895-line-17)">▊</text><text class="terminal-1767742895-r10" x="24.4" y="434.8" textLength="12.2" clip-path="url(#terminal-1767742895-line-17)">▔</text><text class="terminal-1767742895-r1" x="36.6" y="434.8" textLength="109.8" clip-path="url(#terminal-1767742895-line-17)">&#160;message&#160;</text><text class="terminal-1767742895-r10" x="146.4" y="434.8" textLength="805.2" clip-path="url(#terminal-1767742895-line-17)">▔▔▔▔▔▔▔▔▔▔▔▔▔▔▔▔▔▔▔▔▔▔▔▔▔▔▔▔▔▔▔▔▔▔▔▔▔▔▔▔▔▔▔▔▔▔▔▔▔▔▔▔▔▔▔▔▔▔▔▔▔▔▔▔▔▔</text><text class="terminal-1767742895-r10" x="951.6" y="434.8" textLength="12.2" clip-path="url(#terminal-1767742895-line-17)">▎</text><text class="terminal-1767742895-r4" x="976" y="434.8" textLength="12.2" clip-path="url(#terminal-1767742895-line-17)">
</text><text class="terminal-1767742895-r9" x="12.2" y="459.2" textLength="12.2" clip-path="url(#terminal-1767742895-line-18)">▊</text><text class="terminal-1767742895-r11" x="36.6" y="459.2" textLength="12.2" clip-path="url(#terminal-1767742895-line-18)">继</text><text class="terminal-1767742895-r2" x="61" y="459.2" textLength="24.4" clip-path="url(#terminal-1767742895-line-18)">续&#160;</text><text class="terminal-1767742895-r10" x="951.6" y="459.2" textLength="12.2" clip-path="url(#terminal-1767742895-line-18)">▎</text><text class="terminal-1767742895-r4" x="976" y="459.2" textLength="12.2" clip-path="url(#terminal-1767742895-line-18)">
</text><text class="terminal-1767742895-r9" x="12.2" y="483.6" textLength="12.2" clip-path="url(#terminal-1767742895-line-19)">▊</text><text class="terminal-1767742895-r10" x="951.6" y="483.6" textLength="12.2" clip-path="url(#terminal-1767742895-line-19)">▎</text><text class="terminal-1767742895-r4" x="976" y="483.6" textLength="12.2" clip-path="url(#terminal-1767742895-line-19)">
</text><text class="terminal-1767742895-r9" x="12.2" y="508" textLength="12.2" clip-path="url(#terminal-1767742895-line-20)">▊</text><text class="terminal-1767742895-r10" x="951.6" y="508" textLength="12.2" clip-path="url(#terminal-1767742895-line-20)">▎</text><text class="terminal-1767742895-r4" x="976" y="508" textLength="12.2" clip-path="url(#terminal-1767742895-line-20)">
</text><text class="terminal-1767742895-r9" x="12.2" y="532.4" textLength="12.2" clip-path="url(#terminal-1767742895-line-21)">▊</text><text class="terminal-1767742895-r10" x="24.4" y="532.4" textLength="927.2" clip-path="url(#terminal-1767742895-line-21)">▁▁▁▁▁▁▁▁▁▁▁▁▁▁▁▁▁▁▁▁▁▁▁▁▁▁▁▁▁▁▁▁▁▁▁▁▁▁▁▁▁▁▁▁▁▁▁▁▁▁▁▁▁▁▁▁▁▁▁▁▁▁▁▁▁▁▁▁▁▁▁▁▁▁▁▁</text><text class="terminal-1767742895-r10" x="951.6" y="532.4" textLength="12.2" clip-path="url(#terminal-1767742895-line-21)">▎</text><text class="terminal-1767742895-r4" x="976" y="532.4" textLength="12.2" clip-path="url(#terminal-1767742895-line-21)">
</text><text class="terminal-1767742895-r4" x="976" y="556.8" textLength="12.2" clip-path="url(#terminal-1767742895-line-22)">
</text><text class="terminal-1767742895-r12" x="0" y="581.2" textLength="207.4" clip-path="url(#terminal-1767742895-line-23)">deepseek-v4-flash</text><text class="terminal-1767742895-r3" x="219.6" y="581.2" textLength="12.2" clip-path="url(#terminal-1767742895-line-23)">│</text><text class="terminal-1767742895-r13" x="244" y="581.2" textLength="256.2" clip-path="url(#terminal-1767742895-line-23)">~/Documents/pi-python</text><text class="terminal-1767742895-r3" x="512.4" y="581.2" textLength="12.2" clip-path="url(#terminal-1767742895-line-23)">│</text><text class="terminal-1767742895-r14" x="536.8" y="581.2" textLength="12.2" clip-path="url(#terminal-1767742895-line-23)">↵</text><text class="terminal-1767742895-r2" x="549" y="581.2" textLength="61" clip-path="url(#terminal-1767742895-line-23)">&#160;发送&#160;&#160;</text><text class="terminal-1767742895-r14" x="634.4" y="581.2" textLength="24.4" clip-path="url(#terminal-1767742895-line-23)">⇧↵</text><text class="terminal-1767742895-r2" x="658.8" y="581.2" textLength="61" clip-path="url(#terminal-1767742895-line-23)">&#160;换行&#160;&#160;</text><text class="terminal-1767742895-r14" x="744.2" y="581.2" textLength="24.4" clip-path="url(#terminal-1767742895-line-23)">⌃C</text><text class="terminal-1767742895-r2" x="768.6" y="581.2" textLength="36.6" clip-path="url(#terminal-1767742895-line-23)">&#160;退出</text>
    </g>
    </g>
</svg>
