<svg class="rich-terminal" viewBox="0 0 1238 830.8" xmlns="http://www.w3.org/2000/svg">
    <!-- Generated with Rich https://www.textualize.io -->
    <style>

    @font-face {
        font-family: "Fira Code";
        src: local("FiraCode-Regular"),
                url("https://cdnjs.cloudflare.com/ajax/libs/firacode/6.2.0/woff2/FiraCode-Regular.woff2") format("woff2"),
                url("https://cdnjs.cloudflare.com/ajax/libs/firacode/6.2.0/woff/FiraCode-Regular.woff") format("woff");
        font-style: normal;
        font-weight: 400;
    }
    @font-face {
        font-family: "Fira Code";
        src: local("FiraCode-Bold"),
                url("https://cdnjs.cloudflare.com/ajax/libs/firacode/6.2.0/woff2/FiraCode-Bold.woff2") format("woff2"),
                url("https://cdnjs.cloudflare.com/ajax/libs/firacode/6.2.0/woff/FiraCode-Bold.woff") format("woff");
        font-style: bold;
        font-weight: 700;
    }

    .terminal-1003277259-matrix {
        font-family: Fira Code, monospace;
        font-size: 20px;
        line-height: 24.4px;
        font-variant-east-asian: full-width;
    }

    .terminal-1003277259-title {
        font-size: 18px;
        font-weight: bold;
        font-family: arial;
    }

    .terminal-1003277259-r1 { fill: #c5c8c6 }
.terminal-1003277259-r2 { fill: #a0a0a0 }
.terminal-1003277259-r3 { fill: #b0b0b0 }
.terminal-1003277259-r4 { fill: #e0e0e0 }
.terminal-1003277259-r5 { fill: #656565 }
.terminal-1003277259-r6 { fill: #121212 }
    </style>

    <defs>
    <clipPath id="terminal-1003277259-clip-terminal">
      <rect x="0" y="0" width="1219.0" height="779.8" />
    </clipPath>
    <clipPath id="terminal-1003277259-line-0">
    <rect x="0" y="1.5" width="1220" height="24.65"/>
            </clipPath>
<clipPath id="terminal-1003277259-line-1">
    <rect x="0" y="25.9" width="1220" height="24.65"/>
            </clipPath>
<clipPath id="terminal-1003277259-line-2">
    <rect x="0" y="50.3" width="1220" height="24.65"/>
            </clipPath>
<clipPath id="terminal-1003277259-line-3">
    <rect x="0" y="74.7" width="1220" height="24.65"/>
            </clipPath>
<clipPath id="terminal-1003277259-line-4">
    <rect x="0" y="99.1" width="1220" height="24.65"/>
            </clipPath>
<clipPath id="terminal-1003277259-line-5">
    <rect x="0" y="123.5" width="1220" height="24.65"/>
            </clipPath>
<clipPath id="terminal-1003277259-line-6">
    <rect x="0" y="147.9" width="1220" height="24.65"/>
            </clipPath>
<clipPath id="terminal-1003277259-line-7">
    <rect x="0" y="172.3" width="1220" height="24.65"/>
            </clipPath>
<clipPath id="terminal-1003277259-line-8">
    <rect x="0" y="196.7" width="1220" height="24.65"/>
            </clipPath>
<clipPath id="terminal-1003277259-line-9">
    <rect x="0" y="221.1" width="1220" height="24.65"/>
            </clipPath>
<clipPath id="terminal-1003277259-line-10">
    <rect x="0" y="245.5" width="1220" height="24.65"/>
            </clipPath>
<clipPath id="terminal-1003277259-line-11">
    <rect x="0" y="269.9" width="1220" height="24.65"/>
            </clipPath>
<clipPath id="terminal-1003277259-line-12">
    <rect x="0" y="294.3" width="1220" height="24.65"/>
            </clipPath>
<clipPath id="terminal-1003277259-line-13">
    <rect x="0" y="318.7" width="1220" height="24.65"/>
            </clipPath>
<clipPath id="terminal-1003277259-line-14">
    <rect x="0" y="343.1" width="1220" height="24.65"/>
            </clipPath>
<clipPath id="terminal-1003277259-line-15">
    <rect x="0" y="367.5" width="1220" height="24.65"/>
            </clipPath>
<clipPath id="terminal-1003277259-line-16">
    <rect x="0" y="391.9" width="1220" height="24.65"/>
            </clipPath>
<clipPath id="terminal-1003277259-line-17">
    <rect x="0" y="416.3" width="1220" height="24.65"/>
            </clipPath>
<clipPath id="terminal-1003277259-line-18">
    <rect x="0" y="440.7" width="1220" height="24.65"/>
            </clipPath>
<clipPath id="terminal-1003277259-line-19">
    <rect x="0" y="465.1" width="1220" height="24.65"/>
            </clipPath>
<clipPath id="terminal-1003277259-line-20">
    <rect x="0" y="489.5" width="1220" height="24.65"/>
            </clipPath>
<clipPath id="terminal-1003277259-line-21">
    <rect x="0" y="513.9" width="1220" height="24.65"/>
            </clipPath>
<clipPath id="terminal-1003277259-line-22">
    <rect x="0" y="538.3" width="1220" height="24.65"/>
            </clipPath>
<clipPath id="terminal-1003277259-line-23">
    <rect x="0" y="562.7" width="1220" height="24.65"/>
            </clipPath>
<clipPath id="terminal-1003277259-line-24">
    <rect x="0" y="587.1" width="1220" height="24.65"/>
            </clipPath>
<clipPath id="terminal-1003277259-line-25">
    <rect x="0" y="611.5" width="1220" height="24.65"/>
            </clipPath>
<clipPath id="terminal-1003277259-line-26">
    <rect x="0" y="635.9" width="1220" height="24.65"/>
            </clipPath>
<clipPath id="terminal-1003277259-line-27">
    <rect x="0" y="660.3" width="1220" height="24.65"/>
            </clipPath>
<clipPath id="terminal-1003277259-line-28">
    <rect x="0" y="684.7" width="1220" height="24.65"/>
            </clipPath>
<clipPath id="terminal-1003277259-line-29">
    <rect x="0" y="709.1" width="1220" height="24.65"/>
            </clipPath>
<clipPath id="terminal-1003277259-line-30">
    <rect x="0" y="733.5" width="1220" height="24.65"/>
            </clipPath>
    </defs>

    <rect fill="#292929" stroke="rgba(255,255,255,0.35)" stroke-width="1" x="1" y="1" width="1236" height="828.8" rx="8"/><text class="terminal-1003277259-title" fill="#c5c8c6" text-anchor="middle" x="618" y="27">CodingApp</text>
            <g transform="translate(26,22)">
            <circle cx="0" cy="0" r="7" fill="#ff5f57"/>
            <circle cx="22" cy="0" r="7" fill="#febc2e"/>
            <circle cx="44" cy="0" r="7" fill="#28c840"/>
            </g>
        
    <g transform="translate(9, 41)" clip-path="url(#terminal-1003277259-clip-terminal)">
    <rect fill="#121212" x="0" y="1.5" width="12.2" height="24.65" shape-rendering="crispEdges"/><rect fill="#121212" x="12.2" y="1.5" width="256.2" height="24.65" shape-rendering="crispEdges"/><rect fill="#121212" x="268.4" y="1.5" width="939.4" height="24.65" shape-rendering="crispEdges"/><rect fill="#121212" x="1207.8" y="1.5" width="12.2" height="24.65" shape-rendering="crispEdges"/><rect fill="#121212" x="0" y="25.9" width="12.2" height="24.65" shape-rendering="crispEdges"/><rect fill="#121212" x="12.2" y="25.9" width="1195.6" height="24.65" shape-rendering="crispEdges"/><rect fill="#121212" x="1207.8" y="25.9" width="12.2" height="24.65" shape-rendering="crispEdges"/><rect fill="#121212" x="0" y="50.3" width="12.2" height="24.65" shape-rendering="crispEdges"/><rect fill="#121212" x="12.2" y="50.3" width="12.2" height="24.65" shape-rendering="crispEdges"/><rect fill="#121212" x="24.4" y="50.3" width="402.6" height="24.65" shape-rendering="crispEdges"/><rect fill="#121212" x="427" y="50.3" width="768.6" height="24.65" shape-rendering="crispEdges"/><rect fill="#121212" x="1195.6" y="50.3" width="12.2" height="24.65" shape-rendering="crispEdges"/><rect fill="#121212" x="1207.8" y="50.3" width="12.2" height="24.65" shape-rendering="crispEdges"/><rect fill="#121212" x="0" y="74.7" width="12.2" height="24.65" shape-rendering="crispEdges"/><rect fill="#121212" x="12.2" y="74.7" width="12.2" height="24.65" shape-rendering="crispEdges"/><rect fill="#121212" x="24.4" y="74.7" width="195.2" height="24.65" shape-rendering="crispEdges"/><rect fill="#121212" x="219.6" y="74.7" width="976" height="24.65" shape-rendering="crispEdges"/><rect fill="#121212" x="1195.6" y="74.7" width="12.2" height="24.65" shape-rendering="crispEdges"/><rect fill="#121212" x="1207.8" y="74.7" width="12.2" height="24.65" shape-rendering="crispEdges"/><rect fill="#121212" x="0" y="99.1" width="12.2" height="24.65" shape-rendering="crispEdges"/><rect fill="#121212" x="12.2" y="99.1" width="12.2" height="24.65" shape-rendering="crispEdges"/><rect fill="#121212" x="24.4" y="99.1" width="1012.6" height="24.65" shape-rendering="crispEdges"/><rect fill="#121212" x="1037" y="99.1" width="158.6" height="24.65" shape-rendering="crispEdges"/><rect fill="#121212" x="1195.6" y="99.1" width="12.2" height="24.65" shape-rendering="crispEdges"/><rect fill="#121212" x="1207.8" y="99.1" width="12.2" height="24.65" shape-rendering="crispEdges"/><rect fill="#121212" x="0" y="123.5" width="12.2" height="24.65" shape-rendering="crispEdges"/><rect fill="#121212" x="12.2" y="123.5" width="12.2" height="24.65" shape-rendering="crispEdges"/><rect fill="#121212" x="24.4" y="123.5" width="1171.2" height="24.65" shape-rendering="crispEdges"/><rect fill="#121212" x="1195.6" y="123.5" width="12.2" height="24.65" shape-rendering="crispEdges"/><rect fill="#121212" x="1207.8" y="123.5" width="12.2" height="24.65" shape-rendering="crispEdges"/><rect fill="#121212" x="0" y="147.9" width="12.2" height="24.65" shape-rendering="crispEdges"/><rect fill="#121212" x="12.2" y="147.9" width="12.2" height="24.65" shape-rendering="crispEdges"/><rect fill="#121212" x="24.4" y="147.9" width="1171.2" height="24.65" shape-rendering="crispEdges"/><rect fill="#121212" x="1195.6" y="147.9" width="12.2" height="24.65" shape-rendering="crispEdges"/><rect fill="#121212" x="1207.8" y="147.9" width="12.2" height="24.65" shape-rendering="crispEdges"/><rect fill="#121212" x="0" y="172.3" width="12.2" height="24.65" shape-rendering="crispEdges"/><rect fill="#121212" x="12.2" y="172.3" width="12.2" height="24.65" shape-rendering="crispEdges"/><rect fill="#121212" x="24.4" y="172.3" width="1171.2" height="24.65" shape-rendering="crispEdges"/><rect fill="#121212" x="1195.6" y="172.3" width="12.2" height="24.65" shape-rendering="crispEdges"/><rect fill="#121212" x="1207.8" y="172.3" width="12.2" height="24.65" shape-rendering="crispEdges"/><rect fill="#121212" x="0" y="196.7" width="12.2" height="24.65" shape-rendering="crispEdges"/><rect fill="#121212" x="12.2" y="196.7" width="12.2" height="24.65" shape-rendering="crispEdges"/><rect fill="#121212" x="24.4" y="196.7" width="1171.2" height="24.65" shape-rendering="crispEdges"/><rect fill="#121212" x="1195.6" y="196.7" width="12.2" height="24.65" shape-rendering="crispEdges"/><rect fill="#121212" x="1207.8" y="196.7" width="12.2" height="24.65" shape-rendering="crispEdges"/><rect fill="#121212" x="0" y="221.1" width="12.2" height="24.65" shape-rendering="crispEdges"/><rect fill="#121212" x="12.2" y="221.1" width="12.2" height="24.65" shape-rendering="crispEdges"/><rect fill="#121212" x="24.4" y="221.1" width="1171.2" height="24.65" shape-rendering="crispEdges"/><rect fill="#121212" x="1195.6" y="221.1" width="12.2" height="24.65" shape-rendering="crispEdges"/><rect fill="#121212" x="1207.8" y="221.1" width="12.2" height="24.65" shape-rendering="crispEdges"/><rect fill="#121212" x="0" y="245.5" width="12.2" height="24.65" shape-rendering="crispEdges"/><rect fill="#121212" x="12.2" y="245.5" width="12.2" height="24.65" shape-rendering="crispEdges"/><rect fill="#121212" x="24.4" y="245.5" width="1171.2" height="24.65" shape-rendering="crispEdges"/><rect fill="#121212" x="1195.6" y="245.5" width="12.2" height="24.65" shape-rendering="crispEdges"/><rect fill="#121212" x="1207.8" y="245.5" width="12.2" height="24.65" shape-rendering="crispEdges"/><rect fill="#121212" x="0" y="269.9" width="12.2" height="24.65" shape-rendering="crispEdges"/><rect fill="#121212" x="12.2" y="269.9" width="12.2" height="24.65" shape-rendering="crispEdges"/><rect fill="#121212" x="24.4" y="269.9" width="1171.2" height="24.65" shape-rendering="crispEdges"/><rect fill="#121212" x="1195.6" y="269.9" width="12.2" height="24.65" shape-rendering="crispEdges"/><rect fill="#121212" x="1207.8" y="269.9" width="12.2" height="24.65" shape-rendering="crispEdges"/><rect fill="#121212" x="0" y="294.3" width="12.2" height="24.65" shape-rendering="crispEdges"/><rect fill="#121212" x="12.2" y="294.3" width="12.2" height="24.65" shape-rendering="crispEdges"/><rect fill="#121212" x="24.4" y="294.3" width="1171.2" height="24.65" shape-rendering="crispEdges"/><rect fill="#121212" x="1195.6" y="294.3" width="12.2" height="24.65" shape-rendering="crispEdges"/><rect fill="#121212" x="1207.8" y="294.3" width="12.2" height="24.65" shape-rendering="crispEdges"/><rect fill="#121212" x="0" y="318.7" width="12.2" height="24.65" shape-rendering="crispEdges"/><rect fill="#121212" x="12.2" y="318.7" width="12.2" height="24.65" shape-rendering="crispEdges"/><rect fill="#121212" x="24.4" y="318.7" width="1171.2" height="24.65" shape-rendering="crispEdges"/><rect fill="#121212" x="1195.6" y="318.7" width="12.2" height="24.65" shape-rendering="crispEdges"/><rect fill="#121212" x="1207.8" y="318.7" width="12.2" height="24.65" shape-rendering="crispEdges"/><rect fill="#121212" x="0" y="343.1" width="12.2" height="24.65" shape-rendering="crispEdges"/><rect fill="#121212" x="12.2" y="343.1" width="12.2" height="24.65" shape-rendering="crispEdges"/><rect fill="#121212" x="24.4" y="343.1" width="1171.2" height="24.65" shape-rendering="crispEdges"/><rect fill="#121212" x="1195.6" y="343.1" width="12.2" height="24.65" shape-rendering="crispEdges"/><rect fill="#121212" x="1207.8" y="343.1" width="12.2" height="24.65" shape-rendering="crispEdges"/><rect fill="#121212" x="0" y="367.5" width="12.2" height="24.65" shape-rendering="crispEdges"/><rect fill="#121212" x="12.2" y="367.5" width="12.2" height="24.65" shape-rendering="crispEdges"/><rect fill="#121212" x="24.4" y="367.5" width="1171.2" height="24.65" shape-rendering="crispEdges"/><rect fill="#121212" x="1195.6" y="367.5" width="12.2" height="24.65" shape-rendering="crispEdges"/><rect fill="#121212" x="1207.8" y="367.5" width="12.2" height="24.65" shape-rendering="crispEdges"/><rect fill="#121212" x="0" y="391.9" width="12.2" height="24.65" shape-rendering="crispEdges"/><rect fill="#121212" x="12.2" y="391.9" width="12.2" height="24.65" shape-rendering="crispEdges"/><rect fill="#121212" x="24.4" y="391.9" width="1171.2" height="24.65" shape-rendering="crispEdges"/><rect fill="#121212" x="1195.6" y="391.9" width="12.2" height="24.65" shape-rendering="crispEdges"/><rect fill="#121212" x="1207.8" y="391.9" width="12.2" height="24.65" shape-rendering="crispEdges"/><rect fill="#121212" x="0" y="416.3" width="12.2" height="24.65" shape-rendering="crispEdges"/><rect fill="#121212" x="12.2" y="416.3" width="1195.6" height="24.65" shape-rendering="crispEdges"/><rect fill="#121212" x="1207.8" y="416.3" width="12.2" height="24.65" shape-rendering="crispEdges"/><rect fill="#121212" x="0" y="440.7" width="12.2" height="24.65" shape-rendering="crispEdges"/><rect fill="#121212" x="12.2" y="440.7" width="244" height="24.65" shape-rendering="crispEdges"/><rect fill="#121212" x="256.2" y="440.7" width="951.6" height="24.65" shape-rendering="crispEdges"/><rect fill="#121212" x="1207.8" y="440.7" width="12.2" height="24.65" shape-rendering="crispEdges"/><rect fill="#121212" x="0" y="465.1" width="12.2" height="24.65" shape-rendering="crispEdges"/><rect fill="#121212" x="12.2" y="465.1" width="1195.6" height="24.65" shape-rendering="crispEdges"/><rect fill="#121212" x="1207.8" y="465.1" width="12.2" height="24.65" shape-rendering="crispEdges"/><rect fill="#121212" x="0" y="489.5" width="12.2" height="24.65" shape-rendering="crispEdges"/><rect fill="#121212" x="12.2" y="489.5" width="12.2" height="24.65" shape-rendering="crispEdges"/><rect fill="#121212" x="24.4" y="489.5" width="451.4" height="24.65" shape-rendering="crispEdges"/><rect fill="#121212" x="475.8" y="489.5" width="719.8" height="24.65" shape-rendering="crispEdges"/><rect fill="#121212" x="1195.6" y="489.5" width="12.2" height="24.65" shape-rendering="crispEdges"/><rect fill="#121212" x="1207.8" y="489.5" width="12.2" height="24.65" shape-rendering="crispEdges"/><rect fill="#121212" x="0" y="513.9" width="12.2" height="24.65" shape-rendering="crispEdges"/><rect fill="#121212" x="12.2" y="513.9" width="1195.6" height="24.65" shape-rendering="crispEdges"/><rect fill="#121212" x="1207.8" y="513.9" width="12.2" height="24.65" shape-rendering="crispEdges"/><rect fill="#121212" x="0" y="538.3" width="12.2" height="24.65" shape-rendering="crispEdges"/><rect fill="#121212" x="12.2" y="538.3" width="195.2" height="24.65" shape-rendering="crispEdges"/><rect fill="#121212" x="207.4" y="538.3" width="1000.4" height="24.65" shape-rendering="crispEdges"/><rect fill="#121212" x="1207.8" y="538.3" width="12.2" height="24.65" shape-rendering="crispEdges"/><rect fill="#121212" x="0" y="562.7" width="12.2" height="24.65" shape-rendering="crispEdges"/><rect fill="#121212" x="12.2" y="562.7" width="1195.6" height="24.65" shape-rendering="crispEdges"/><rect fill="#121212" x="1207.8" y="562.7" width="12.2" height="24.65" shape-rendering="crispEdges"/><rect fill="#121212" x="0" y="587.1" width="12.2" height="24.65" shape-rendering="crispEdges"/><rect fill="#121212" x="12.2" y="587.1" width="12.2" height="24.65" shape-rendering="crispEdges"/><rect fill="#121212" x="24.4" y="587.1" width="634.4" height="24.65" shape-rendering="crispEdges"/><rect fill="#121212" x="658.8" y="587.1" width="536.8" height="24.65" shape-rendering="crispEdges"/><rect fill="#121212" x="1195.6" y="587.1" width="12.2" height="24.65" shape-rendering="crispEdges"/><rect fill="#121212" x="1207.8" y="587.1" width="12.2" height="24.65" shape-rendering="crispEdges"/><rect fill="#121212" x="0" y="611.5" width="12.2" height="24.65" shape-rendering="crispEdges"/><rect fill="#121212" x="12.2" y="611.5" width="1195.6" height="24.65" shape-rendering="crispEdges"/><rect fill="#121212" x="1207.8" y="611.5" width="12.2" height="24.65" shape-rendering="crispEdges"/><rect fill="#121212" x="0" y="635.9" width="12.2" height="24.65" shape-rendering="crispEdges"/><rect fill="#121212" x="12.2" y="635.9" width="341.6" height="24.65" shape-rendering="crispEdges"/><rect fill="#121212" x="353.8" y="635.9" width="854" height="24.65" shape-rendering="crispEdges"/><rect fill="#121212" x="1207.8" y="635.9" width="12.2" height="24.65" shape-rendering="crispEdges"/><rect fill="#656565" x="0" y="660.3" width="12.2" height="24.65" shape-rendering="crispEdges"/><rect fill="#1e1e1e" x="12.2" y="660.3" width="1195.6" height="24.65" shape-rendering="crispEdges"/><rect fill="#121212" x="1207.8" y="660.3" width="12.2" height="24.65" shape-rendering="crispEdges"/><rect fill="#656565" x="0" y="684.7" width="12.2" height="24.65" shape-rendering="crispEdges"/><rect fill="#1e1e1e" x="12.2" y="684.7" width="12.2" height="24.65" shape-rendering="crispEdges"/><rect fill="#e0e0e0" x="24.4" y="684.7" width="12.2" height="24.65" shape-rendering="crispEdges"/><rect fill="#262626" x="36.6" y="684.7" width="1159" height="24.65" shape-rendering="crispEdges"/><rect fill="#1e1e1e" x="1195.6" y="684.7" width="12.2" height="24.65" shape-rendering="crispEdges"/><rect fill="#121212" x="1207.8" y="684.7" width="12.2" height="24.65" shape-rendering="crispEdges"/><rect fill="#656565" x="0" y="709.1" width="12.2" height="24.65" shape-rendering="crispEdges"/><rect fill="#1e1e1e" x="12.2" y="709.1" width="12.2" height="24.65" shape-rendering="crispEdges"/><rect fill="#1e1e1e" x="24.4" y="709.1" width="1171.2" height="24.65" shape-rendering="crispEdges"/><rect fill="#1e1e1e" x="1195.6" y="709.1" width="12.2" height="24.65" shape-rendering="crispEdges"/><rect fill="#121212" x="1207.8" y="709.1" width="12.2" height="24.65" shape-rendering="crispEdges"/><rect fill="#656565" x="0" y="733.5" width="12.2" height="24.65" shape-rendering="crispEdges"/><rect fill="#1e1e1e" x="12.2" y="733.5" width="12.2" height="24.65" shape-rendering="crispEdges"/><rect fill="#1e1e1e" x="24.4" y="733.5" width="1171.2" height="24.65" shape-rendering="crispEdges"/><rect fill="#1e1e1e" x="1195.6" y="733.5" width="12.2" height="24.65" shape-rendering="crispEdges"/><rect fill="#121212" x="1207.8" y="733.5" width="12.2" height="24.65" shape-rendering="crispEdges"/><rect fill="#656565" x="0" y="757.9" width="12.2" height="24.65" shape-rendering="crispEdges"/><rect fill="#1e1e1e" x="12.2" y="757.9" width="1195.6" height="24.65" shape-rendering="crispEdges"/><rect fill="#121212" x="1207.8" y="757.9" width="12.2" height="24.65" shape-rendering="crispEdges"/>
    <g class="terminal-1003277259-matrix">
    <text class="terminal-1003277259-r2" x="12.2" y="20" textLength="207.4" clip-path="url(#terminal-1003277259-line-0)">Transcript&#160;—&#160;对话历史</text><text class="terminal-1003277259-r1" x="1220" y="20" textLength="12.2" clip-path="url(#terminal-1003277259-line-0)">
</text><text class="terminal-1003277259-r3" x="0" y="44.4" textLength="12.2" clip-path="url(#terminal-1003277259-line-1)">┌</text><text class="terminal-1003277259-r3" x="12.2" y="44.4" textLength="1195.6" clip-path="url(#terminal-1003277259-line-1)">──────────────────────────────────────────────────────────────────────────────────────────────────</text><text class="terminal-1003277259-r3" x="1207.8" y="44.4" textLength="12.2" clip-path="url(#terminal-1003277259-line-1)">┐</text><text class="terminal-1003277259-r1" x="1220" y="44.4" textLength="12.2" clip-path="url(#terminal-1003277259-line-1)">
</text><text class="terminal-1003277259-r3" x="0" y="68.8" textLength="12.2" clip-path="url(#terminal-1003277259-line-2)">│</text><text class="terminal-1003277259-r4" x="24.4" y="68.8" textLength="207.4" clip-path="url(#terminal-1003277259-line-2)">&#160;用一句话介绍你自己，不要说别的。</text><text class="terminal-1003277259-r3" x="1207.8" y="68.8" textLength="12.2" clip-path="url(#terminal-1003277259-line-2)">│</text><text class="terminal-1003277259-r1" x="1220" y="68.8" textLength="12.2" clip-path="url(#terminal-1003277259-line-2)">
</text><text class="terminal-1003277259-r3" x="0" y="93.2" textLength="12.2" clip-path="url(#terminal-1003277259-line-3)">│</text><text class="terminal-1003277259-r4" x="24.4" y="93.2" textLength="146.4" clip-path="url(#terminal-1003277259-line-3)">&#160;我是你的&#160;coding</text><text class="terminal-1003277259-r3" x="1207.8" y="93.2" textLength="12.2" clip-path="url(#terminal-1003277259-line-3)">│</text><text class="terminal-1003277259-r1" x="1220" y="93.2" textLength="12.2" clip-path="url(#terminal-1003277259-line-3)">
</text><text class="terminal-1003277259-r3" x="0" y="117.6" textLength="12.2" clip-path="url(#terminal-1003277259-line-4)">│</text><text class="terminal-1003277259-r4" x="24.4" y="117.6" textLength="536.8" clip-path="url(#terminal-1003277259-line-4)">agent，拥有读、写、编辑、执行命令和调用专业技能的能力，随时帮你搞定代码相关的一切。</text><text class="terminal-1003277259-r3" x="1207.8" y="117.6" textLength="12.2" clip-path="url(#terminal-1003277259-line-4)">│</text><text class="terminal-1003277259-r1" x="1220" y="117.6" textLength="12.2" clip-path="url(#terminal-1003277259-line-4)">
</text><text class="terminal-1003277259-r3" x="0" y="142" textLength="12.2" clip-path="url(#terminal-1003277259-line-5)">│</text><text class="terminal-1003277259-r3" x="1207.8" y="142" textLength="12.2" clip-path="url(#terminal-1003277259-line-5)">│</text><text class="terminal-1003277259-r1" x="1220" y="142" textLength="12.2" clip-path="url(#terminal-1003277259-line-5)">
</text><text class="terminal-1003277259-r3" x="0" y="166.4" textLength="12.2" clip-path="url(#terminal-1003277259-line-6)">│</text><text class="terminal-1003277259-r3" x="1207.8" y="166.4" textLength="12.2" clip-path="url(#terminal-1003277259-line-6)">│</text><text class="terminal-1003277259-r1" x="1220" y="166.4" textLength="12.2" clip-path="url(#terminal-1003277259-line-6)">
</text><text class="terminal-1003277259-r3" x="0" y="190.8" textLength="12.2" clip-path="url(#terminal-1003277259-line-7)">│</text><text class="terminal-1003277259-r3" x="1207.8" y="190.8" textLength="12.2" clip-path="url(#terminal-1003277259-line-7)">│</text><text class="terminal-1003277259-r1" x="1220" y="190.8" textLength="12.2" clip-path="url(#terminal-1003277259-line-7)">
</text><text class="terminal-1003277259-r3" x="0" y="215.2" textLength="12.2" clip-path="url(#terminal-1003277259-line-8)">│</text><text class="terminal-1003277259-r3" x="1207.8" y="215.2" textLength="12.2" clip-path="url(#terminal-1003277259-line-8)">│</text><text class="terminal-1003277259-r1" x="1220" y="215.2" textLength="12.2" clip-path="url(#terminal-1003277259-line-8)">
</text><text class="terminal-1003277259-r3" x="0" y="239.6" textLength="12.2" clip-path="url(#terminal-1003277259-line-9)">│</text><text class="terminal-1003277259-r3" x="1207.8" y="239.6" textLength="12.2" clip-path="url(#terminal-1003277259-line-9)">│</text><text class="terminal-1003277259-r1" x="1220" y="239.6" textLength="12.2" clip-path="url(#terminal-1003277259-line-9)">
</text><text class="terminal-1003277259-r3" x="0" y="264" textLength="12.2" clip-path="url(#terminal-1003277259-line-10)">│</text><text class="terminal-1003277259-r3" x="1207.8" y="264" textLength="12.2" clip-path="url(#terminal-1003277259-line-10)">│</text><text class="terminal-1003277259-r1" x="1220" y="264" textLength="12.2" clip-path="url(#terminal-1003277259-line-10)">
</text><text class="terminal-1003277259-r3" x="0" y="288.4" textLength="12.2" clip-path="url(#terminal-1003277259-line-11)">│</text><text class="terminal-1003277259-r3" x="1207.8" y="288.4" textLength="12.2" clip-path="url(#terminal-1003277259-line-11)">│</text><text class="terminal-1003277259-r1" x="1220" y="288.4" textLength="12.2" clip-path="url(#terminal-1003277259-line-11)">
</text><text class="terminal-1003277259-r3" x="0" y="312.8" textLength="12.2" clip-path="url(#terminal-1003277259-line-12)">│</text><text class="terminal-1003277259-r3" x="1207.8" y="312.8" textLength="12.2" clip-path="url(#terminal-1003277259-line-12)">│</text><text class="terminal-1003277259-r1" x="1220" y="312.8" textLength="12.2" clip-path="url(#terminal-1003277259-line-12)">
</text><text class="terminal-1003277259-r3" x="0" y="337.2" textLength="12.2" clip-path="url(#terminal-1003277259-line-13)">│</text><text class="terminal-1003277259-r3" x="1207.8" y="337.2" textLength="12.2" clip-path="url(#terminal-1003277259-line-13)">│</text><text class="terminal-1003277259-r1" x="1220" y="337.2" textLength="12.2" clip-path="url(#terminal-1003277259-line-13)">
</text><text class="terminal-1003277259-r3" x="0" y="361.6" textLength="12.2" clip-path="url(#terminal-1003277259-line-14)">│</text><text class="terminal-1003277259-r3" x="1207.8" y="361.6" textLength="12.2" clip-path="url(#terminal-1003277259-line-14)">│</text><text class="terminal-1003277259-r1" x="1220" y="361.6" textLength="12.2" clip-path="url(#terminal-1003277259-line-14)">
</text><text class="terminal-1003277259-r3" x="0" y="386" textLength="12.2" clip-path="url(#terminal-1003277259-line-15)">│</text><text class="terminal-1003277259-r3" x="1207.8" y="386" textLength="12.2" clip-path="url(#terminal-1003277259-line-15)">│</text><text class="terminal-1003277259-r1" x="1220" y="386" textLength="12.2" clip-path="url(#terminal-1003277259-line-15)">
</text><text class="terminal-1003277259-r3" x="0" y="410.4" textLength="12.2" clip-path="url(#terminal-1003277259-line-16)">│</text><text class="terminal-1003277259-r3" x="1207.8" y="410.4" textLength="12.2" clip-path="url(#terminal-1003277259-line-16)">│</text><text class="terminal-1003277259-r1" x="1220" y="410.4" textLength="12.2" clip-path="url(#terminal-1003277259-line-16)">
</text><text class="terminal-1003277259-r3" x="0" y="434.8" textLength="12.2" clip-path="url(#terminal-1003277259-line-17)">└</text><text class="terminal-1003277259-r3" x="12.2" y="434.8" textLength="1195.6" clip-path="url(#terminal-1003277259-line-17)">──────────────────────────────────────────────────────────────────────────────────────────────────</text><text class="terminal-1003277259-r3" x="1207.8" y="434.8" textLength="12.2" clip-path="url(#terminal-1003277259-line-17)">┘</text><text class="terminal-1003277259-r1" x="1220" y="434.8" textLength="12.2" clip-path="url(#terminal-1003277259-line-17)">
</text><text class="terminal-1003277259-r2" x="12.2" y="459.2" textLength="195.2" clip-path="url(#terminal-1003277259-line-18)">Streaming&#160;—&#160;流式输出</text><text class="terminal-1003277259-r1" x="1220" y="459.2" textLength="12.2" clip-path="url(#terminal-1003277259-line-18)">
</text><text class="terminal-1003277259-r5" x="0" y="483.6" textLength="12.2" clip-path="url(#terminal-1003277259-line-19)">┌</text><text class="terminal-1003277259-r5" x="12.2" y="483.6" textLength="1195.6" clip-path="url(#terminal-1003277259-line-19)">──────────────────────────────────────────────────────────────────────────────────────────────────</text><text class="terminal-1003277259-r5" x="1207.8" y="483.6" textLength="12.2" clip-path="url(#terminal-1003277259-line-19)">┐</text><text class="terminal-1003277259-r1" x="1220" y="483.6" textLength="12.2" clip-path="url(#terminal-1003277259-line-19)">
</text><text class="terminal-1003277259-r5" x="0" y="508" textLength="12.2" clip-path="url(#terminal-1003277259-line-20)">│</text><text class="terminal-1003277259-r4" x="24.4" y="508" textLength="244" clip-path="url(#terminal-1003277259-line-20)">（流式输出&#160;—&#160;模型回复时在此逐字显示）</text><text class="terminal-1003277259-r5" x="1207.8" y="508" textLength="12.2" clip-path="url(#terminal-1003277259-line-20)">│</text><text class="terminal-1003277259-r1" x="1220" y="508" textLength="12.2" clip-path="url(#terminal-1003277259-line-20)">
</text><text class="terminal-1003277259-r5" x="0" y="532.4" textLength="12.2" clip-path="url(#terminal-1003277259-line-21)">└</text><text class="terminal-1003277259-r5" x="12.2" y="532.4" textLength="1195.6" clip-path="url(#terminal-1003277259-line-21)">──────────────────────────────────────────────────────────────────────────────────────────────────</text><text class="terminal-1003277259-r5" x="1207.8" y="532.4" textLength="12.2" clip-path="url(#terminal-1003277259-line-21)">┘</text><text class="terminal-1003277259-r1" x="1220" y="532.4" textLength="12.2" clip-path="url(#terminal-1003277259-line-21)">
</text><text class="terminal-1003277259-r2" x="12.2" y="556.8" textLength="146.4" clip-path="url(#terminal-1003277259-line-22)">Tools&#160;—&#160;工具调用</text><text class="terminal-1003277259-r1" x="1220" y="556.8" textLength="12.2" clip-path="url(#terminal-1003277259-line-22)">
</text><text class="terminal-1003277259-r3" x="0" y="581.2" textLength="12.2" clip-path="url(#terminal-1003277259-line-23)">┌</text><text class="terminal-1003277259-r3" x="12.2" y="581.2" textLength="1195.6" clip-path="url(#terminal-1003277259-line-23)">──────────────────────────────────────────────────────────────────────────────────────────────────</text><text class="terminal-1003277259-r3" x="1207.8" y="581.2" textLength="12.2" clip-path="url(#terminal-1003277259-line-23)">┐</text><text class="terminal-1003277259-r1" x="1220" y="581.2" textLength="12.2" clip-path="url(#terminal-1003277259-line-23)">
</text><text class="terminal-1003277259-r3" x="0" y="605.6" textLength="12.2" clip-path="url(#terminal-1003277259-line-24)">│</text><text class="terminal-1003277259-r4" x="24.4" y="605.6" textLength="500.2" clip-path="url(#terminal-1003277259-line-24)">（工具调用&#160;—&#160;read&#160;/&#160;write&#160;/&#160;edit&#160;/&#160;bash&#160;执行时显示）</text><text class="terminal-1003277259-r3" x="1207.8" y="605.6" textLength="12.2" clip-path="url(#terminal-1003277259-line-24)">│</text><text class="terminal-1003277259-r1" x="1220" y="605.6" textLength="12.2" clip-path="url(#terminal-1003277259-line-24)">
</text><text class="terminal-1003277259-r3" x="0" y="630" textLength="12.2" clip-path="url(#terminal-1003277259-line-25)">└</text><text class="terminal-1003277259-r3" x="12.2" y="630" textLength="1195.6" clip-path="url(#terminal-1003277259-line-25)">──────────────────────────────────────────────────────────────────────────────────────────────────</text><text class="terminal-1003277259-r3" x="1207.8" y="630" textLength="12.2" clip-path="url(#terminal-1003277259-line-25)">┘</text><text class="terminal-1003277259-r1" x="1220" y="630" textLength="12.2" clip-path="url(#terminal-1003277259-line-25)">
</text><text class="terminal-1003277259-r2" x="12.2" y="654.4" textLength="268.4" clip-path="url(#terminal-1003277259-line-26)">Editor&#160;—&#160;输入（Ctrl+J&#160;提交）</text><text class="terminal-1003277259-r1" x="1220" y="654.4" textLength="12.2" clip-path="url(#terminal-1003277259-line-26)">
</text><text class="terminal-1003277259-r6" x="0" y="678.8" textLength="12.2" clip-path="url(#terminal-1003277259-line-27)">▊</text><text class="terminal-1003277259-r5" x="12.2" y="678.8" textLength="1195.6" clip-path="url(#terminal-1003277259-line-27)">▔▔▔▔▔▔▔▔▔▔▔▔▔▔▔▔▔▔▔▔▔▔▔▔▔▔▔▔▔▔▔▔▔▔▔▔▔▔▔▔▔▔▔▔▔▔▔▔▔▔▔▔▔▔▔▔▔▔▔▔▔▔▔▔▔▔▔▔▔▔▔▔▔▔▔▔▔▔▔▔▔▔▔▔▔▔▔▔▔▔▔▔▔▔▔▔▔▔</text><text class="terminal-1003277259-r5" x="1207.8" y="678.8" textLength="12.2" clip-path="url(#terminal-1003277259-line-27)">▎</text><text class="terminal-1003277259-r1" x="1220" y="678.8" textLength="12.2" clip-path="url(#terminal-1003277259-line-27)">
</text><text class="terminal-1003277259-r6" x="0" y="703.2" textLength="12.2" clip-path="url(#terminal-1003277259-line-28)">▊</text><text class="terminal-1003277259-r5" x="1207.8" y="703.2" textLength="12.2" clip-path="url(#terminal-1003277259-line-28)">▎</text><text class="terminal-1003277259-r1" x="1220" y="703.2" textLength="12.2" clip-path="url(#terminal-1003277259-line-28)">
</text><text class="terminal-1003277259-r6" x="0" y="727.6" textLength="12.2" clip-path="url(#terminal-1003277259-line-29)">▊</text><text class="terminal-1003277259-r5" x="1207.8" y="727.6" textLength="12.2" clip-path="url(#terminal-1003277259-line-29)">▎</text><text class="terminal-1003277259-r1" x="1220" y="727.6" textLength="12.2" clip-path="url(#terminal-1003277259-line-29)">
</text><text class="terminal-1003277259-r6" x="0" y="752" textLength="12.2" clip-path="url(#terminal-1003277259-line-30)">▊</text><text class="terminal-1003277259-r5" x="1207.8" y="752" textLength="12.2" clip-path="url(#terminal-1003277259-line-30)">▎</text><text class="terminal-1003277259-r1" x="1220" y="752" textLength="12.2" clip-path="url(#terminal-1003277259-line-30)">
</text><text class="terminal-1003277259-r6" x="0" y="776.4" textLength="12.2" clip-path="url(#terminal-1003277259-line-31)">▊</text><text class="terminal-1003277259-r5" x="12.2" y="776.4" textLength="1195.6" clip-path="url(#terminal-1003277259-line-31)">▁▁▁▁▁▁▁▁▁▁▁▁▁▁▁▁▁▁▁▁▁▁▁▁▁▁▁▁▁▁▁▁▁▁▁▁▁▁▁▁▁▁▁▁▁▁▁▁▁▁▁▁▁▁▁▁▁▁▁▁▁▁▁▁▁▁▁▁▁▁▁▁▁▁▁▁▁▁▁▁▁▁▁▁▁▁▁▁▁▁▁▁▁▁▁▁▁▁</text><text class="terminal-1003277259-r5" x="1207.8" y="776.4" textLength="12.2" clip-path="url(#terminal-1003277259-line-31)">▎</text>
    </g>
    </g>
</svg>
